/* XPM */
static char * collectibles_xpm[] = {
"48 48 403 2",
"  	c #15294B",
". 	c #10244B",
"+ 	c #12274B",
"@ 	c #7A9E44",
"# 	c #2B3F4A",
"$ 	c #20344B",
"% 	c #162A4B",
"& 	c #12264B",
"* 	c #4F6949",
"= 	c #405849",
"- 	c #0C224B",
"; 	c #739545",
"> 	c #5D7A47",
", 	c #14284B",
"' 	c #0E234B",
") 	c #7DA044",
"! 	c #82A743",
"~ 	c #0A204B",
"{ 	c #15284B",
"] 	c #1F334B",
"^ 	c #33494A",
"/ 	c #14294B",
"( 	c #2C404A",
"_ 	c #2D424A",
": 	c #1D4842",
"< 	c #1E4941",
"[ 	c #162C4A",
"} 	c #87AC43",
"| 	c #2F444A",
"1 	c #1E4A41",
"2 	c #1E4B41",
"3 	c #061E4B",
"4 	c #83A843",
"5 	c #3C534A",
"6 	c #152B4B",
"7 	c #1D4742",
"8 	c #34494A",
"9 	c #384E4A",
"0 	c #21354B",
"a 	c #152A4B",
"b 	c #23374B",
"c 	c #162D4A",
"d 	c #30454A",
"e 	c #8AB142",
"f 	c #11264B",
"g 	c #09204B",
"h 	c #13284B",
"i 	c #80A543",
"j 	c #8DB442",
"k 	c #4A6449",
"l 	c #183349",
"m 	c #1D4643",
"n 	c #516B48",
"o 	c #283C4B",
"p 	c #6F9046",
"q 	c #13274B",
"r 	c #17304A",
"s 	c #162F4A",
"t 	c #1A2D4B",
"u 	c #173349",
"v 	c #1C4543",
"w 	c #263A4B",
"x 	c #5A7648",
"y 	c #1C2E48",
"z 	c #4C6649",
"A 	c #7FA344",
"B 	c #475F49",
"C 	c #192C49",
"D 	c #4C6549",
"E 	c #7EA244",
"F 	c #425949",
"G 	c #6D8D46",
"H 	c #4D6649",
"I 	c #10254B",
"J 	c #85AB43",
"K 	c #1C4244",
"L 	c #1C4344",
"M 	c #162B4B",
"N 	c #1D2E47",
"O 	c #162A4A",
"P 	c #333949",
"Q 	c #7D7347",
"R 	c #666043",
"S 	c #7E7546",
"T 	c #8C8149",
"U 	c #5E5A4A",
"V 	c #1A2E4B",
"W 	c #213245",
"X 	c #182B4A",
"Y 	c #173149",
"Z 	c #1B4145",
"` 	c #1A3C46",
" .	c #2F374A",
"..	c #6A623F",
"+.	c #BEAA36",
"@.	c #BBA732",
"#.	c #C4B036",
"$.	c #CAB539",
"%.	c #93843F",
"&.	c #66614A",
"*.	c #183748",
"=.	c #193848",
"-.	c #183548",
";.	c #464745",
">.	c #7C5C18",
",.	c #A42327",
"'.	c #AE5620",
").	c #BE9D31",
"!.	c #C98633",
"~.	c #B25529",
"{.	c #9E903B",
"].	c #132545",
"^.	c #162E4A",
"/.	c #193A47",
"(.	c #15284A",
"_.	c #21172E",
":.	c #890E0E",
"<.	c #CF4343",
"[.	c #B51B1D",
"}.	c #CF522F",
"|.	c #DB5D34",
"1.	c #D92D31",
"2.	c #B42427",
"3.	c #651E31",
"4.	c #142849",
"5.	c #982324",
"6.	c #BF3333",
"7.	c #D84A4A",
"8.	c #B81F20",
"9.	c #D62C30",
"0.	c #D82C30",
"a.	c #D72D30",
"b.	c #D92E31",
"c.	c #CB2B2F",
"d.	c #351F38",
"e.	c #1E4942",
"f.	c #09162D",
"g.	c #830D0D",
"h.	c #D64A4A",
"i.	c #DF5050",
"j.	c #DC4E4E",
"k.	c #C72628",
"l.	c #D32B2E",
"m.	c #D62D2F",
"n.	c #D02C2F",
"o.	c #7E1C28",
"p.	c #122544",
"q.	c #402441",
"r.	c #AA2327",
"s.	c #821214",
"t.	c #CB4949",
"u.	c #CA3D3D",
"v.	c #C43031",
"w.	c #CF2B2C",
"x.	c #D13B3C",
"y.	c #C82628",
"z.	c #CE2B2E",
"A.	c #9D1A1C",
"B.	c #931516",
"C.	c #7D1A24",
"D.	c #122443",
"E.	c #16294B",
"F.	c #2C3B3C",
"G.	c #8F1B21",
"H.	c #B02326",
"I.	c #961516",
"J.	c #B33232",
"K.	c #D92F2F",
"L.	c #DD2829",
"M.	c #CB2F30",
"N.	c #C33737",
"O.	c #CF292C",
"P.	c #9B1C1D",
"Q.	c #860F0F",
"R.	c #952D2D",
"S.	c #871E1E",
"T.	c #281527",
"U.	c #132646",
"V.	c #75131D",
"W.	c #AA1B1D",
"X.	c #8F1414",
"Y.	c #B73232",
"Z.	c #B72828",
"`.	c #CC292B",
" +	c #C02B2B",
".+	c #C52828",
"++	c #D52A2C",
"@+	c #C52B2E",
"#+	c #B63C3C",
"$+	c #822929",
"%+	c #912727",
"&+	c #3E1F28",
"*+	c #1E314B",
"=+	c #22364B",
"-+	c #172B4B",
";+	c #1F324B",
">+	c #450F1D",
",+	c #841010",
"'+	c #A91F1F",
")+	c #B92929",
"!+	c #C02F2F",
"~+	c #B42021",
"{+	c #9D2424",
"]+	c #CE393B",
"^+	c #DF2B2D",
"/+	c #DA2E30",
"(+	c #DD4041",
"_+	c #E04C4C",
":+	c #DE4344",
"<+	c #9E3523",
"[+	c #76973C",
"}+	c #87AD42",
"|+	c #0C2A49",
"1+	c #183648",
"2+	c #354B4A",
"3+	c #173249",
"4+	c #10223F",
"5+	c #8A1315",
"6+	c #BC2021",
"7+	c #BE3232",
"8+	c #CC4040",
"9+	c #B52424",
"0+	c #972424",
"a+	c #CD4848",
"b+	c #DB3B3D",
"c+	c #D1292C",
"d+	c #D93033",
"e+	c #E04B4C",
"f+	c #DB3537",
"g+	c #BE292D",
"h+	c #3E5441",
"i+	c #10213E",
"j+	c #9F1616",
"k+	c #BE2123",
"l+	c #CC3F3F",
"m+	c #B52222",
"n+	c #A21819",
"o+	c #C53B3C",
"p+	c #DD4141",
"q+	c #D22B2E",
"r+	c #D52C2F",
"s+	c #DF4748",
"t+	c #DA3537",
"u+	c #BE282C",
"v+	c #112341",
"w+	c #1C4444",
"x+	c #9F1717",
"y+	c #C12325",
"z+	c #C23636",
"A+	c #B62525",
"B+	c #A81B1C",
"C+	c #C53A3B",
"D+	c #C72D2F",
"E+	c #D42D30",
"F+	c #D62D30",
"G+	c #D32C2F",
"H+	c #C92629",
"I+	c #CE292B",
"J+	c #CF2C2E",
"K+	c #D92F32",
"L+	c #C92A2D",
"M+	c #481B30",
"N+	c #881214",
"O+	c #B11A1A",
"P+	c #BA2B2B",
"Q+	c #C02D2E",
"R+	c #8E2020",
"S+	c #D74747",
"T+	c #CC4344",
"U+	c #852526",
"V+	c #D82E30",
"W+	c #D82D30",
"X+	c #BF2729",
"Y+	c #AF2325",
"Z+	c #C0272A",
"`+	c #CD292C",
" @	c #6B1E2F",
".@	c #5C121F",
"+@	c #B41C1C",
"@@	c #BB2929",
"#@	c #B92828",
"$@	c #790E0E",
"%@	c #A43030",
"&@	c #A62D2E",
"*@	c #972828",
"=@	c #DA2B2D",
"-@	c #E52626",
";@	c #700F0F",
">@	c #821415",
",@	c #B92628",
"'@	c #B02122",
")@	c #C22526",
"!@	c #611B2E",
"~@	c #53182D",
"{@	c #A71717",
"]@	c #AE1C1C",
"^@	c #9D1414",
"/@	c #921616",
"(@	c #C02527",
"_@	c #AF1A1B",
":@	c #DA2E31",
"<@	c #901213",
"[@	c #AA1D1E",
"}@	c #AA2124",
"|@	c #A01F21",
"1@	c #BF2629",
"2@	c #691D2F",
"3@	c #194841",
"4@	c #132F49",
"5@	c #192849",
"6@	c #4B172B",
"7@	c #991414",
"8@	c #BA1F20",
"9@	c #A11818",
"0@	c #A51616",
"a@	c #B82929",
"b@	c #C3292A",
"c@	c #D42D2F",
"d@	c #901314",
"e@	c #AE1D1F",
"f@	c #A42022",
"g@	c #9F1D1F",
"h@	c #5A1B2E",
"i@	c #182F4A",
"j@	c #719344",
"k@	c #536E48",
"l@	c #32484A",
"m@	c #5B1A2F",
"n@	c #A31617",
"o@	c #AF1D1D",
"p@	c #B32121",
"q@	c #CA3434",
"r@	c #C92C2D",
"s@	c #BD2325",
"t@	c #911516",
"u@	c #851316",
"v@	c #490E1A",
"w@	c #24384B",
"x@	c #0D224B",
"y@	c #7DA144",
"z@	c #0B214B",
"A@	c #5A0F1A",
"B@	c #AD1818",
"C@	c #C03434",
"D@	c #BF3232",
"E@	c #C83C3C",
"F@	c #C83D3D",
"G@	c #BC2B2B",
"H@	c #C32F2F",
"I@	c #951A1D",
"J@	c #331B34",
"K@	c #640D14",
"L@	c #A81717",
"M@	c #AE1A1A",
"N@	c #B82A2A",
"O@	c #BD3131",
"P@	c #BC3030",
"Q@	c #AE2525",
"R@	c #7B1621",
"S@	c #182C4B",
"T@	c #183448",
"U@	c #1A2C49",
"V@	c #1F3046",
"W@	c #13213E",
"X@	c #610D15",
"Y@	c #9D1515",
"Z@	c #AD1717",
"`@	c #A81919",
" #	c #7A0F0F",
".#	c #232443",
"+#	c #89B042",
"@#	c #3F564A",
"##	c #1B2D48",
"$#	c #112342",
"%#	c #0F1F3B",
"&#	c #501426",
"*#	c #661524",
"=#	c #501B30",
"-#	c #15294A",
";#	c #435B49",
">#	c #14284A",
",#	c #1A3E45",
"'#	c #7B9E44",
")#	c #A9D63C",
"!#	c #00144B",
"~#	c #193748",
"{#	c #01194B",
"]#	c #678646",
"^#	c #031B4B",
"/#	c #A5D23D",
"(#	c #172F4A",
"_#	c #1B4045",
":#	c #557048",
"<#	c #3B514A",
"[#	c #1A3E46",
"}#	c #1D314B",
"|#	c #3F574A",
"1#	c #1C2F4B",
"2#	c #89AF42",
"3#	c #0A214B",
"4#	c #40574A",
"5#	c #6F8F46",
"6#	c #33484A",
"      .                                                                                         ",
"    + @ #                                                                                       ",
"      $ %                                                 & * =         + &                     ",
"                                                          - ; > ,     ' ) ! ~ { {               ",
"        ] ^                                                           / ( _ , : < [             ",
"        ^ } |     { {                                                       { 1 2 [   , 3       ",
"        , 4 5   6 : 7                   , 8 9 0 a [ [                 b b     c c     d e f     ",
"          g h   6 2 1                   g i j k l 2 m {               n n             o p q     ",
"                  r s         t 0         h q   u < v {               , ,               ,       ",
"            w x ,     y y     z A                 { {                                           ",
"            $ B       C C     D E                                                               ",
"                              F G                       , H w                 { {               ",
"                              h I                       5 J w               { K L M             ",
"          N O                       P Q R S T U         % V                 { < 2 [             ",
"          W X         Y Z ` {      ...+.@.#.$.%.&.                            *.=.a             ",
"                      -.1 v {     ;.>.,.'.).!.~.{.].                                            ",
"                      ^./.*.    (._.:.<.[.}.|.1.2.3.          { {                               ",
"                              4._.5.6.7.8.9.0.a.b.c.d.      [ e.7 {                             ",
"                            (.f.g.h.i.j.k.b.l.m.b.n.o.p.    [ 2 1 {                             ",
"                      X     q.r.s.t.u.v.w.x.l.y.z.A.B.C.D.    ^.^.                              ",
"      { {           E.F./ p.G.H.I.J.K.L.M.N.k.O.P.Q.R.S.T.                                      ",
"    s m L {               U.V.W.X.Y.Z.`. +.+++b.@+#+$+%+&+*+              =+      -+;+          ",
"    Y 2 7 {               4.>+,+'+)+!+~+{+]+^+/+b.(+_+:+<+[+            q }+|+1+s 2+; /         ",
"    6 l 3+                4+5+6+7+8+9+0+a+b+c+a.b.d+e+f+g+h+              ' Z 1 /., I           ",
"                          i+j+k+l+m+n+o+p+b.b.b.q+r+s+t+u+v+                ` w+1+              ",
"                          i+x+y+z+A+B+C+D+E+F+G+H+I+J+K+L+M+                  {                 ",
"                          4+N+O+P+Q+R+S+T+U+V+W+X+Y+Z+`+G+ @                                    ",
"                { {       4..@+@@@#@$@%@&@*@=@-@;@>@,@'@)@!@                                    ",
"              { v < Y       ~@{@]@N.^@/@(@_@a.:@<@[@}@|@1@2@                                    ",
"              { 7 3@4@      5@6@7@8@Z.9@0@a@b@c@(@d@e@f@g@h@                                    ",
"                i@j@k@    l@, 4.m@n@z+o@Z.N.p@q@r@s@t@u@v@v+          a [ [                     ",
"                w@; x@  q y@z@  U.A@0@B@C@D@E@F@G@H@I@J@].            -.2 v {                   ",
"                  ,       h       i+K@L@B@M@N@O@P@Q@R@U.  b S@        T@< w+{       6 6         ",
"    U@V@                            W@X@Y@{@B@Z@`@ #.#  , +#@#          { {       c 2 < {       ",
"    X ##                              $#%#&#*#*#=#i+-#    ;#=+                    c 1 : {       ",
"                        {                 >#4.4.(.                                              ",
"                      3+L ,#{   q &                                                             ",
"                      -.1 v { h '#)#!#              Y 1 7 {                 + n f               ",
"                      c ~#-.    {#]#'               Y 2 7 {                 ^#/#!#              ",
"      c (#[                                           6 6                     o ,       8 w     ",
"      _#2 `                                                             { {             :#<#    ",
"      [#: /.                                            }#|#1#        { Z : 1+                  ",
"      { {                                               2+2#A 3#      { L 2 =.                  ",
"                                                          & 4#q         c ^.6                   ",
"            , g                     - 5#'                                                       ",
"            6#A h                   & z &                                                       ",
"            , .                                                                                 ",
"                                                                                                "};
