/* XPM */
static char * exit_xpm[] = {
"48 48 484 2",
"  	c #15294B",
". 	c #10244B",
"+ 	c #34294A",
"@ 	c #7E2844",
"# 	c #21294B",
"$ 	c #12274B",
"% 	c #7A9E44",
"& 	c #2B3F4A",
"* 	c #2E294A",
"= 	c #442949",
"- 	c #B72738",
"; 	c #DC262B",
"> 	c #3C294A",
", 	c #20344B",
"' 	c #162A4B",
") 	c #37294A",
"! 	c #BA2737",
"~ 	c #DC262A",
"{ 	c #12264B",
"] 	c #4F6949",
"^ 	c #405849",
"/ 	c #C62634",
"( 	c #8B2842",
"_ 	c #B82738",
": 	c #0C224B",
"< 	c #739545",
"[ 	c #5D7A47",
"} 	c #14284B",
"| 	c #0E234B",
"1 	c #7DA044",
"2 	c #82A743",
"3 	c #0A204B",
"4 	c #29284A",
"5 	c #892742",
"6 	c #E22527",
"7 	c #1F334B",
"8 	c #39494A",
"9 	c #822843",
"0 	c #BC2737",
"a 	c #C72633",
"b 	c #14294B",
"c 	c #2C404A",
"d 	c #2D424A",
"e 	c #3C284A",
"f 	c #88403B",
"g 	c #DF2928",
"h 	c #E32527",
"i 	c #E62526",
"j 	c #4D2949",
"k 	c #33494A",
"l 	c #87AC43",
"m 	c #404449",
"n 	c #612947",
"o 	c #D5262E",
"p 	c #B72638",
"q 	c #2E284A",
"r 	c #D4262E",
"s 	c #D6262D",
"t 	c #E62525",
"u 	c #BF2736",
"v 	c #3D294A",
"w 	c #412949",
"x 	c #5D2947",
"y 	c #DC252A",
"z 	c #DE2928",
"A 	c #81443B",
"B 	c #CF2630",
"C 	c #39284A",
"D 	c #061E4B",
"E 	c #87A643",
"F 	c #AD413B",
"G 	c #E52526",
"H 	c #BA3633",
"I 	c #404540",
"J 	c #38294A",
"K 	c #8F2841",
"L 	c #96283F",
"M 	c #513448",
"N 	c #2E2A4A",
"O 	c #382C49",
"P 	c #DD252A",
"Q 	c #D7262D",
"R 	c #712C45",
"S 	c #4F2948",
"T 	c #30454A",
"U 	c #8AB142",
"V 	c #11264B",
"W 	c #8A2142",
"X 	c #D22630",
"Y 	c #BF2836",
"Z 	c #BA3732",
"` 	c #B83732",
" .	c #B62738",
"..	c #22294B",
"+.	c #542948",
"@.	c #DF2529",
"#.	c #E12528",
"$.	c #D7242D",
"%.	c #E03D28",
"&.	c #E33727",
"*.	c #BE4435",
"=.	c #B92A35",
"-.	c #DC2B29",
";.	c #DC2A29",
">.	c #892842",
",.	c #BB2737",
"'.	c #922840",
").	c #D02630",
"!.	c #E52726",
"~.	c #E62626",
"{.	c #BE2736",
"].	c #512948",
"^.	c #283C4B",
"/.	c #6F9046",
"(.	c #13274B",
"_.	c #C52634",
":.	c #CB2632",
"<.	c #D7272D",
"[.	c #BC2936",
"}.	c #4C2949",
"|.	c #832B43",
"1.	c #C22B35",
"2.	c #CB2631",
"3.	c #E02528",
"4.	c #BF2531",
"5.	c #BE2530",
"6.	c #BF242E",
"7.	c #A01F28",
"8.	c #C12227",
"9.	c #C02429",
"0.	c #913631",
"a.	c #933432",
"b.	c #D5252B",
"c.	c #DD2529",
"d.	c #DD262A",
"e.	c #CA2632",
"f.	c #DA262C",
"g.	c #DD262B",
"h.	c #4E2949",
"i.	c #482949",
"j.	c #E22628",
"k.	c #A1623E",
"l.	c #DB252B",
"m.	c #922B3E",
"n.	c #C62633",
"o.	c #DD302A",
"p.	c #C46430",
"q.	c #6C2135",
"r.	c #831A1A",
"s.	c #7F1919",
"t.	c #894319",
"u.	c #8F5C19",
"v.	c #915B19",
"w.	c #7D1919",
"x.	c #932438",
"y.	c #C62631",
"z.	c #E32528",
"A.	c #E42527",
"B.	c #E22528",
"C.	c #B92737",
"D.	c #592948",
"E.	c #5D3248",
"F.	c #DD2E2A",
"G.	c #E42526",
"H.	c #C12635",
"I.	c #BB2635",
"J.	c #744A37",
"K.	c #854419",
"L.	c #966E19",
"M.	c #AD9519",
"N.	c #BAA919",
"O.	c #CCC717",
"P.	c #DCDC16",
"Q.	c #821A1A",
"R.	c #90253B",
"S.	c #652947",
"T.	c #882842",
"U.	c #E02529",
"V.	c #831A1C",
"W.	c #9E7C19",
"X.	c #C7BF17",
"Y.	c #E7ED16",
"Z.	c #DBE114",
"`.	c #CED412",
" +	c #A6AB0C",
".+	c #7A7E06",
"++	c #841A1A",
"@+	c #D72427",
"#+	c #D6252C",
"$+	c #15284B",
"%+	c #522948",
"&+	c #D6252A",
"*+	c #891A1A",
"=+	c #8E5C19",
"-+	c #C6BB18",
";+	c #EDF416",
">+	c #B7BC0F",
",+	c #111200",
"'+	c #000000",
")+	c #8F1B1B",
"!+	c #E52525",
"~+	c #C92630",
"{+	c #562948",
"]+	c #1C4244",
"^+	c #1C4344",
"/+	c #162B4B",
"(+	c #1D2E47",
"_+	c #162A4A",
":+	c #C82633",
"<+	c #8A1A1A",
"[+	c #D7D517",
"}+	c #E1E815",
"|+	c #868A08",
"1+	c #C62121",
"2+	c #C52121",
"3+	c #CF262F",
"4+	c #1E4941",
"5+	c #1E4B41",
"6+	c #162C4A",
"7+	c #213245",
"8+	c #182B4A",
"9+	c #DF2629",
"0+	c #8C1C1D",
"a+	c #BFC410",
"b+	c #871A1A",
"c+	c #183748",
"d+	c #193848",
"e+	c #152A4B",
"f+	c #CE2630",
"g+	c #D72529",
"h+	c #8C431A",
"i+	c #D7D318",
"j+	c #CDD312",
"k+	c #D5252D",
"l+	c #D1252E",
"m+	c #A11D1D",
"n+	c #B5A019",
"o+	c #585B03",
"p+	c #B4A119",
"q+	c #D82324",
"r+	c #B92738",
"s+	c #2A294A",
"t+	c #A8273B",
"u+	c #832233",
"v+	c #874419",
"w+	c #E6E817",
"x+	c #9CA00B",
"y+	c #D4252D",
"z+	c #31294A",
"A+	c #AD2637",
"B+	c #911B1B",
"C+	c #AD9619",
"D+	c #D4DA13",
"E+	c #A21E23",
"F+	c #7F2843",
"G+	c #872842",
"H+	c #D7252B",
"I+	c #BA2020",
"J+	c #D2CA18",
"K+	c #AEB30D",
"L+	c #D2CC18",
"M+	c #A01D1D",
"N+	c #D8252A",
"O+	c #F8FD18",
"P+	c #787C06",
"Q+	c #F8FF18",
"R+	c #7B1919",
"S+	c #852843",
"T+	c #162F4A",
"U+	c #1D4643",
"V+	c #412849",
"W+	c #C0242E",
"X+	c #8B4319",
"Y+	c #F3F917",
"Z+	c #D5262D",
"`+	c #172B4B",
" @	c #1F324B",
".@	c #173149",
"+@	c #264742",
"@@	c #7E2744",
"#@	c #D7262C",
"$@	c #D82426",
"%@	c #AB881A",
"&@	c #DAE114",
"*@	c #A78B19",
"=@	c #BD252F",
"-@	c #BA2D36",
";@	c #2E2F49",
">@	c #354B4A",
",@	c #152B4B",
"'@	c #183349",
")@	c #173249",
"!@	c #D92426",
"~@	c #923133",
"{@	c #393946",
"]@	c #10254B",
"^@	c #4F2949",
"/@	c #C92633",
"(@	c #C62329",
"_@	c #A17D19",
":@	c #E1E715",
"<@	c #9F7E19",
"[@	c #AA2D33",
"}@	c #DD2929",
"|@	c #383547",
"1@	c #DA262B",
"2@	c #BF2530",
"3@	c #801919",
"4@	c #3C3E01",
"5@	c #DE252A",
"6@	c #7F2439",
"7@	c #F0F318",
"8@	c #909509",
"9@	c #F0F418",
"0@	c #A31D1D",
"a@	c #C92632",
"b@	c #5C2947",
"c@	c #AA2536",
"d@	c #B81F1F",
"e@	c #C2B219",
"f@	c #BEC310",
"g@	c #C1B419",
"h@	c #6A2947",
"i@	c #DE2529",
"j@	c #DC252B",
"k@	c #543F3D",
"l@	c #7E1919",
"m@	c #BE232B",
"n@	c #BD2736",
"o@	c #832843",
"p@	c #1D4742",
"q@	c #513C36",
"r@	c #D8D418",
"s@	c #C5CB11",
"t@	c #A9273C",
"u@	c #8E2841",
"v@	c #1E2F4A",
"w@	c #8B7F3C",
"x@	c #BA1F1F",
"y@	c #9B9F0A",
"z@	c #DE2526",
"A@	c #DE2629",
"B@	c #632847",
"C@	c #40294A",
"D@	c #C42734",
"E@	c #DB262B",
"F@	c #2F384B",
"G@	c #A97B3C",
"H@	c #E12527",
"I@	c #BCAA19",
"J@	c #BBAB19",
"K@	c #A51D1D",
"L@	c #534341",
"M@	c #C22734",
"N@	c #812743",
"O@	c #CD2328",
"P@	c #A91D1D",
"Q@	c #777A06",
"R@	c #D6272A",
"S@	c #E22727",
"T@	c #464343",
"U@	c #372B4A",
"V@	c #2E2B4A",
"W@	c #D3262F",
"X@	c #422C48",
"Y@	c #1F3046",
"Z@	c #DB252A",
"`@	c #D02222",
" #	c #811919",
".#	c #861A1A",
"+#	c #C0232B",
"@#	c #562848",
"##	c #162D4A",
"$#	c #1B2D48",
"%#	c #5E2947",
"&#	c #821A1B",
"*#	c #E7E818",
"=#	c #A4A90C",
"-#	c #AB1E1E",
";#	c #D32428",
">#	c #1E4A41",
",#	c #1D4842",
"'#	c #C42635",
")#	c #BD2737",
"!#	c #DD252B",
"~#	c #552846",
"{#	c #602135",
"]#	c #D2CD18",
"^#	c #A71D1D",
"/#	c #BD2A35",
"(#	c #482849",
"_#	c #382745",
":#	c #7A191B",
"<#	c #DF2527",
"[#	c #E22627",
"}#	c #6F2946",
"|#	c #712845",
"1#	c #E12628",
"2#	c #E62625",
"3#	c #C8302F",
"4#	c #2D284A",
"5#	c #7B9E44",
"6#	c #A2C538",
"7#	c #741822",
"8#	c #6B302D",
"9#	c #CA2633",
"0#	c #D6262E",
"a#	c #516B48",
"b#	c #C02736",
"c#	c #E02628",
"d#	c #C82A31",
"e#	c #01194B",
"f#	c #678646",
"g#	c #2B2848",
"h#	c #52233C",
"i#	c #4A2540",
"j#	c #3B4641",
"k#	c #912840",
"l#	c #031B4B",
"m#	c #A5D23D",
"n#	c #00144B",
"o#	c #172F4A",
"p#	c #212C4A",
"q#	c #782844",
"r#	c #C92732",
"s#	c #B82737",
"t#	c #C02735",
"u#	c #34494A",
"v#	c #263A4B",
"w#	c #1B4045",
"x#	c #1A3C46",
"y#	c #BC2736",
"z#	c #692946",
"A#	c #602947",
"B#	c #852742",
"C#	c #7F2743",
"D#	c #557048",
"E#	c #3B514A",
"F#	c #1A3E46",
"G#	c #193A47",
"H#	c #C82632",
"I#	c #AA273C",
"J#	c #1D314B",
"K#	c #3F574A",
"L#	c #5F2E47",
"M#	c #DD2829",
"N#	c #DD2A29",
"O#	c #B82D36",
"P#	c #AB273B",
"Q#	c #C52734",
"R#	c #4C2948",
"S#	c #8AAE42",
"T#	c #A78C3D",
"U#	c #BE2636",
"V#	c #D52B2C",
"W#	c #C8332F",
"X#	c #BF2D34",
"Y#	c #DA252C",
"Z#	c #4E2948",
"`#	c #BA2738",
" $	c #432649",
".$	c #DC2D2B",
"+$	c #C92532",
"@$	c #752944",
"#$	c #8C2241",
"$$	c #452949",
"%$	c #B92438",
"&$	c #DE3A2A",
"*$	c #BA2437",
"=$	c #C32734",
"-$	c #474749",
";$	c #81A244",
">$	c #13284B",
",$	c #2C264A",
"'$	c #5C6448",
")$	c #812643",
"!$	c #402949",
"~$	c #5F2947",
"{$	c #942840",
"]$	c #32294A",
"^$	c #472949",
"/$	c #572948",
"($	c #762845",
"_$	c #20294B",
"      .                                 + @ #                                                   ",
"    $ % &                           * = - ; >                                                   ",
"      , '   ) *                   = - ; ! ~ @ #           { ] ^         $ {     # = =           ",
"          ) ; - >               ) ; / ( _ _ +             : < [ }     | 1 2 3 4 5 6 6 =         ",
"        7 8 9 - - >             * 0 6 a 0 - *                         b c d e f g h i j         ",
"        k l m n o p q           > r s 6 t u j                 # * ) ) v w x y z A t B C D       ",
"        } E F G t H I * *       J ~ K L t t t M N O O > # * w 9 - ; P t t t Q R t s S T U V     ",
"        # W i X Y Z ` -  .*   ..+.@.#.t $.%.&.*.=.-.;.r >.! t P ,.'.).!.~.t i {.t ].  ^./.(.    ",
"        + _.h :.G <.[._ _ w }.|.1.2.3.4.5.6.7.8.9.0.a.b.c.6 d.t h t h P e.s f.g.h.      }       ",
"        i.! j.k.l.i 6 m.~ n.t o.p.q.r.s.s.t.u.v.t.w.w.r.r.x.y.z.A.t P P B.,.C.9 #               ",
"      D.r - E.F.G G.H.t 6 n.I.J.s.K.L.M.N.O.P.P.O.N.M.L.K.w.Q.R.n.S.T.; T.+ * #                 ",
"    i.t o i.# T.d.t U.u f.c.V.K.W.X.Y.Z.`. +.+.+ +`.Z.Y.X.W.K.++@+#+! ! +     $+$+              ",
"      i.>     # %+:.t Q &+*+=+-+;+>+,+'+'+'+'+'+'+'+'+,+>+;+-+=+)+!+~+B.{+  $+]+^+/+            ",
"          (+_+  + :+t t <+=+[+}+|+'+'+'+'+'+'+'+'+'+'+'+'+|+}+[+v.1+2+3+@.> $+4+5+6+            ",
"          7+8+  h.9+A.0+=+[+a+'+'+'+'+'+'+'+'+'+'+'+'+'+'+'+'+a+[+v.b+t d.)   c+d+e+            ",
"              ) ; f+g+h+i+j+'+'+'+'+'+'+'+'+'+'+'+'+'+'+'+'+'+'+j+i+K.<+k+i.                    ",
"              ) ; l+m+n+;+o+'+'+'+'+'+'+'+'+'+'+'+'+'+'+'+'+'+'+o+;+p+r.q+r+>                   ",
"              s+t+u+v+w+x+'+'+'+'+'+'+'+'+'+'+'+'+'+'+'+'+'+'+'+'+x+w+K.<+y+_ *                 ",
"            # z+A+B+C+D+'+'+'+'+'+'+'+'+'+'+'+'+'+'+'+'+'+'+'+'+'+'+D+C+w.E+; )                 ",
"          # F+G+H+I+J+K+'+'+'+'+'+'+'+'+'+'+'+'+'+'+'+'+'+'+'+'+'+'+K+L+w.M+~ >                 ",
"      $+$+) ~ ~ N+I+O+P+'+'+'+'+'+'+'+'+'+'+'+'+'+'+'+'+'+'+'+'+'+'+P+Q+R+r.~ S+#               ",
"    T+U+^+V+t 0 W+X+Y+'+'+'+'+'+'+'+'+'+'+'+'+'+'+'+'+'+'+'+'+'+'+'+'+Y+K.r.Z+r > `+ @          ",
"    .@5++@@@g.#@$@%@&@'+'+'+'+'+'+'+'+'+'+'+'+'+'+'+'+'+'+'+'+'+'+'+'+&@*@s.=@-@;@>@< b         ",
"    ,@'@)@+ {.t !@%@&@'+'+'+'+'+'+'+'+'+'+'+'+'+'+'+'+'+'+'+'+'+'+'+'+&@*@w.~@;.{@} ]@          ",
"          ^@/@t (@_@:@'+'+'+'+'+'+'+'+'+'+'+'+'+'+'+'+'+'+'+'+'+'+'+'+:@<@s.[@}@|@              ",
"      * ].1@G G 2@3@Q+4@'+'+'+'+'+'+'+'+'+'+'+'+'+'+'+'+'+'+'+'+'+'+4@Q+R+b+B.t i.              ",
"    * - 5@t U.P 6@)+7@8@'+'+'+'+'+'+'+'+'+'+'+'+'+'+'+'+'+'+'+'+'+'+8@9@w.0@6 {.>               ",
"    + a@h Q / b@c@d@e@f@'+'+'+'+'+'+'+'+'+'+'+'+'+'+'+'+'+'+'+'+'+'+f@g@w.0@P t 0 {+*           ",
"    h@t A.u i@j@k@l@<@:@'+'+'+'+'+'+'+'+'+'+'+'+'+'+'+'+'+'+'+'+'+'+:@<@s.m@! P t G 0 i.        ",
"  ].t t n@- o@e p@q@l@r@s@'+'+'+'+'+'+'+'+'+'+'+'+'+'+'+'+'+'+'+'+s@r@R+r.G+_ t@h 1@t t v       ",
"> o G u@+ * #   v@w@x@_@Q+y@'+'+'+'+'+'+'+'+'+'+'+'+'+'+'+'+'+'+y@Q+<@r.z@A@! ; d.B@'.t i.      ",
"C@D@E@=         F@G@H@<+I@:@'+'+'+'+'+'+'+'+'+'+'+'+'+'+'+'+'+'+:@J@w.K@g L@q ) h.t ; ! *       ",
"- ,.M@+         # N@P O@P@I@:@Q@'+'+'+'+'+'+'+'+'+'+'+'+'+'+Q@:@J@R+b+R@S@T@$+    v U@V@        ",
"W@- X@Y@        # F+d.Z@`@ #J@Q+s@'+'+'+'+'+'+'+'+'+'+'+'+s@Q+J@w..#+#r @#$+      ##5+4+$+      ",
"> * 8+$#          %#t f.@.&#R+<@*#:@=#'+'+'+'+'+'+'+'+=#:@*#<@s.-#;#~ j           ##>#,#$+      ",
"                w '#B.)#!#~#{#R+R+<@]#Q+Q+:@s@s@:@Q+Q+]#<@R+++^#3.).d.)                         ",
"              i.- _ n@/#t t (#_#:#R+R+R+R+<@J@J@<@R+R+R+R+.#<#[#d.}#t D.                        ",
"            > o r |#@.1#2#3#p 4#5#6#7#R+R+R+R+R+R+R+R+R+8#p a@9#d.r+0#- *   $ a#V               ",
"            }.t b#t Q c#t d#_ * e#f#|     g#h#h#i#  .@5+j#j@k#@.@.)#o C.*   l#m#n#              ",
"      ##o#p#o@h d.q#r#G :.s#r+*                       ,@V@- _ t#6 a o C.+ #   ^.}       u#v#    ",
"      w#5+x#+ y#t t t t f.z#t A#*                         = g.#.U.s Z+a B#C#+ *         D#E#    ",
"      F#,#G#+ _ s H#I#U.s t t t ! = * #                 J#K#L#G #.f.{.G M#N#O#r+i.+             ",
"      $+$+w 9 P#6 0 S o o A#,.d.Q#~ C.o@R#w )           >@S#T#B.l.~ K U#V#W#X#t s n.+           ",
"        {+t 9+t Y#B.Z#- r+`#o ! ! _.o @.t t ; j            $.$+$G @$B.0#Q G G t i G D.          ",
"      j B.y#y #$$$=   * i.r r r+- _ %$&$*$A#! W@i.      *  .,.d.f.r t t t G #.s =$t C.i.*       ",
"    > C.t }.-$;$>$        > > * * * ,$'$)$; ,.n@r+!$    * - r n@! i.v i.i.j ~$t 6 {$,.t 0 w     ",
"  *  .W@+.  } .                         # j r t t /@]$    ^$o @._ *           }.r+; t Q i / +   ",
"    * >                                     > i./$($_$    # >.B.j               * ) ].r s _ *   "};
