/* XPM */
static char * ground_xpm[] = {
"48 48 158 2",
"  	c None",
". 	c #15294B",
"+ 	c #10244B",
"@ 	c #12274B",
"# 	c #7A9E44",
"$ 	c #2B3F4A",
"% 	c #20344B",
"& 	c #162A4B",
"* 	c #12264B",
"= 	c #4F6949",
"- 	c #405849",
"; 	c #0C224B",
"> 	c #739545",
", 	c #5D7A47",
"' 	c #14284B",
") 	c #0E234B",
"! 	c #7DA044",
"~ 	c #82A743",
"{ 	c #0A204B",
"] 	c #15284B",
"^ 	c #1F334B",
"/ 	c #33494A",
"( 	c #14294B",
"_ 	c #2C404A",
": 	c #2D424A",
"< 	c #1D4842",
"[ 	c #1E4941",
"} 	c #162C4A",
"| 	c #87AC43",
"1 	c #2F444A",
"2 	c #1E4A41",
"3 	c #1E4B41",
"4 	c #061E4B",
"5 	c #83A843",
"6 	c #3C534A",
"7 	c #152B4B",
"8 	c #1D4742",
"9 	c #34494A",
"0 	c #384E4A",
"a 	c #21354B",
"b 	c #152A4B",
"c 	c #23374B",
"d 	c #162D4A",
"e 	c #30454A",
"f 	c #8AB142",
"g 	c #11264B",
"h 	c #09204B",
"i 	c #13284B",
"j 	c #80A543",
"k 	c #8DB442",
"l 	c #4A6449",
"m 	c #183349",
"n 	c #1D4643",
"o 	c #516B48",
"p 	c #283C4B",
"q 	c #6F9046",
"r 	c #13274B",
"s 	c #17304A",
"t 	c #162F4A",
"u 	c #1A2D4B",
"v 	c #173349",
"w 	c #1C4543",
"x 	c #263A4B",
"y 	c #5A7648",
"z 	c #1C2E48",
"A 	c #4C6649",
"B 	c #7FA344",
"C 	c #475F49",
"D 	c #192C49",
"E 	c #4C6549",
"F 	c #7EA244",
"G 	c #425949",
"H 	c #6D8D46",
"I 	c #4D6649",
"J 	c #10254B",
"K 	c #85AB43",
"L 	c #1C4244",
"M 	c #1C4344",
"N 	c #162B4B",
"O 	c #1D2E47",
"P 	c #162A4A",
"Q 	c #1A2E4B",
"R 	c #213245",
"S 	c #182B4A",
"T 	c #173149",
"U 	c #1B4145",
"V 	c #1A3C46",
"W 	c #183748",
"X 	c #193848",
"Y 	c #183548",
"Z 	c #162E4A",
"` 	c #193A47",
" .	c #1E4942",
"..	c #183648",
"+.	c #1C4443",
"@.	c #16294B",
"#.	c #2C3B3C",
"$.	c #1D304B",
"%.	c #192C4B",
"&.	c #24384B",
"*.	c #1E314B",
"=.	c #22364B",
"-.	c #172B4B",
";.	c #1F324B",
">.	c #7A9D44",
",.	c #546F48",
"'.	c #071E4B",
").	c #97C140",
"!.	c #87AD42",
"~.	c #0C2A49",
"{.	c #354B4A",
"].	c #173249",
"^.	c #465E49",
"/.	c #1C4444",
"(.	c #091F4B",
"_.	c #2E434A",
":.	c #84AA43",
"<.	c #194841",
"[.	c #132F49",
"}.	c #253442",
"|.	c #192B49",
"1.	c #182F4A",
"2.	c #719344",
"3.	c #536E48",
"4.	c #32484A",
"5.	c #0D224B",
"6.	c #7DA144",
"7.	c #0B214B",
"8.	c #182C4B",
"9.	c #183448",
"0.	c #1A2C49",
"a.	c #1F3046",
"b.	c #89B042",
"c.	c #3F564A",
"d.	c #1B2D48",
"e.	c #435B49",
"f.	c #1A3E45",
"g.	c #7B9E44",
"h.	c #A9D63C",
"i.	c #00144B",
"j.	c #193748",
"k.	c #01194B",
"l.	c #678646",
"m.	c #031B4B",
"n.	c #A5D23D",
"o.	c #172F4A",
"p.	c #1B4045",
"q.	c #557048",
"r.	c #3B514A",
"s.	c #1A3E46",
"t.	c #1D314B",
"u.	c #3F574A",
"v.	c #1C2F4B",
"w.	c #89AF42",
"x.	c #0A214B",
"y.	c #40574A",
"z.	c #6F8F46",
"A.	c #33484A",
"  . . . + . . . . . . . . . . . . . . . . . . . . . . . . . . . . . . . . . . . . . . . . . . . ",
"  . . @ # $ . . . . . . . . . . . . . . . . . . . . . . . . . . . . . . . . . . . . . . . . . . ",
"  . . . % & . . . . . . . . . . . . . . . . . . . . . . . . * = - . . . . @ * . . . . . . . . . ",
"  . . . . . . . . . . . . . . . . . . . . . . . . . . . . . ; > , ' . . ) ! ~ { ] ] . . . . . . ",
"  . . . . ^ / . . . . . . . . . . . . . . . . . . . . . . . . . . . . . ( _ : ' < [ } . . . . . ",
"  . . . . / | 1 . . ] ] . . . . . . . . . . . . . . . . . . . . . . . . . . . ] 2 3 } . ' 4 . . ",
"  . . . . ' 5 6 . 7 < 8 . . . . . . . . . ' 9 0 a b } } . . . . . . . . c c . . d d . . e f g . ",
"  . . . . . h i . 7 3 2 . . . . . . . . . h j k l m 3 n ] . . . . . . . o o . . . . . . p q r . ",
"  . . . . . . . . . s t . . . . u a . . . . i r . v [ w ] . . . . . . . ' ' . . . . . . . ' . . ",
"  . . . . . . x y ' . . z z . . A B . . . . . . . . ] ] . . . . . . . . . . . . . . . . . . . . ",
"  . . . . . . % C . . . D D . . E F . . . . . . . . . . . . . . . . . . . . . . . . . . . . . . ",
"  . . . . . . . . . . . . . . . G H . . . . . . . . . . . ' I x . . . . . . . . ] ] . . . . . . ",
"  . . . . . . . . . . . . . . . i J . . . . . . . . . . . 6 K x . . . . . . . ] L M N . . . . . ",
"  . . . . . O P . . . . . . . . . . . . . . . . . . . . . & Q . . . . . . . . ] [ 3 } . . . . . ",
"  . . . . . R S . . . . T U V ] . . . . . . . . . . . . . . . . . . . . . . . . W X b . . . . . ",
"  . . . . . . . . . . . Y 2 w ] . . . . . . . . . . . . . . . . . . . . . . . . . . . . . . . . ",
"  . . . . . . . . . . . Z ` W . . . . . . . . . ] ] . . . . . . ] ] . . . . . . . . . . . . . . ",
"  . . . . . . . . . . . . . . . . . . . . . . Y < L ] . . . . }  .8 ] . . . . . . . . . . . . . ",
"  . . . . . . . . . . . . . . . . . . . . . . ..3 +.] . . . . } 3 2 ] . . . . . . . . . . . . . ",
"  . . . . . . . . . . . S . . . . . . . . . . 7 Z d . . . . . . Z Z . . . . . . . . . . . . . . ",
"  . . . ] ] . . . . . @.#.( . . . . . . . . . . . . . . . . . . . . . . . . . . . . . . . . . . ",
"  . . t n M ] . . . . . . . . . . . . . . $.%.. . . . . . &.*.. . . . . . . =.. . . -.;.. . . . ",
"  . . T 3 8 ] . . . . . . . . . . . . . . >.,.. . . . . '.).5 . . . . . . r !.~...t {.> ( . . . ",
"  . . 7 m ].. . . . . . . . . . . . . . . - : . . . . . . c ^.. . . . . . . ) U 2 ` ' J . . . . ",
"  . . . . . . . . . . . . . . . . . . . . . . . . . . . . . . . . . . . . . . V /.... . . . . . ",
"  . . . . . . . . . . . . . . . . . . . . . . . . . . . . . . . . . . . . . . . ] . . . . . . . ",
"  . . . . . . . . . . . . . . . . . . . . . b 2 [ . . . . . . . . . . . . . . . . . . . . . . . ",
"  . . . . . . . . ] ] . . . . . . . . . ' (.b 3 2 . . . . . . . . . . . . . . . . . . . . . . . ",
"  . . . . . . . ] w [ T . . . . . . . . _.:.* } } . . . . . . . . . . . . . . . . . . . . . . . ",
"  . . . . . . . ] 8 <.[.. . . . . . . }.|.4 . . . . . . . . . . . . . . . . . . . . . . . . . . ",
"  . . . . . . . . 1.2.3.. . 4.' . . . S & . . . . . . . . . . . . . . . b } } . . . . . . . . . ",
"  . . . . . . . . &.> 5.. r 6.7.. . . . . . . . . . . . . . . . . . . . Y 3 w ] . . . . . . . . ",
"  . . . . . . . . . ' . . . i . . . . . . . . . . . . . . . c 8.. . . . 9.[ /.] . . . 7 7 . . . ",
"  . . 0.a.. . . . . . . . . . . . . . . . . . . . . . . . ' b.c.. . . . . ] ] . . . d 3 [ ] . . ",
"  . . S d.. . . . . . . . . . . . . . . . . . . . . . . . . e.=.. . . . . . . . . . d 2 < ] . . ",
"  . . . . . . . . . . . . ] . . . . . . . . . . . . . . . . . . . . . . . . . . . . . . . . . . ",
"  . . . . . . . . . . . ].M f.] . r * . . . . . . . . . . . . . . . . . . . . . . . . . . . . . ",
"  . . . . . . . . . . . Y 2 w ] i g.h.i.. . . . . . . T 2 8 ] . . . . . . . . @ o g . . . . . . ",
"  . . . . . . . . . . . d j.Y . . k.l.) . . . . . . . T 3 8 ] . . . . . . . . m.n.i.. . . . . . ",
"  . . . d o.} . . . . . . . . . . . . . . . . . . . . . 7 7 . . . . . . . . . . p ' . . . 9 x . ",
"  . . . p.3 V . . . . . . . . . . . . . . . . . . . . . . . . . . . . . . ] ] . . . . . . q.r.. ",
"  . . . s.< ` . . . . . . . . . . . . . . . . . . . . . . t.u.v.. . . . ] U < ... . . . . . . . ",
"  . . . ] ] . . . . . . . . . . . . . . . . . . . . . . . {.w.B x.. . . ] M 3 X . . . . . . . . ",
"  . . . . . . . . . . . . . . . . . . . . . . . . . . . . . * y.r . . . . d Z 7 . . . . . . . . ",
"  . . . . . . ' h . . . . . . . . . . ; z.) . . . . . . . . . . . . . . . . . . . . . . . . . . ",
"  . . . . . . A.B i . . . . . . . . . * A * . . . . . . . . . . . . . . . . . . . . . . . . . . ",
"  . . . . . . ' + . . . . . . . . . . . . . . . . . . . . . . . . . . . . . . . . . . . . . . . ",
"  . . . . . . . . . . . . . . . . . . . . . . . . . . . . . . . . . . . . . . . . . . . . . . . "};
