/* XPM */
static char *_b3848ed425a466bee7fd80fc0c9bb42juKnasbbH4kJRLrg[] = {
/* columns rows colors chars-per-pixel */
"48 48 211 2 ",
"   c None",
".  c #1C1018",
"X  c #221117",
"o  c #25131D",
"O  c #2C151E",
"+  c #1C1324",
"@  c #231424",
"#  c #2B1523",
"$  c #201925",
"%  c #2D1A23",
"&  c #251C29",
"*  c #321724",
"=  c #341925",
"-  c #3B1A22",
";  c #341C2B",
":  c #3C1D2B",
">  c #351C32",
",  c #27232C",
"<  c #2C242D",
"1  c #2B242B",
"2  c #3A242B",
"3  c #36262A",
"4  c #292632",
"5  c #2B2B35",
"6  c #2D2C39",
"7  c #342E35",
"8  c #312C3D",
"9  c #3C2E39",
"0  c #32323C",
"q  c #39353A",
"w  c #363B3E",
"e  c #3C3B3C",
"r  c #363336",
"t  c #2C3B3C",
"y  c #44291C",
"u  c #52351F",
"i  c #451C25",
"p  c #4B1D24",
"a  c #401F2E",
"s  c #4D2A2C",
"d  c #472726",
"f  c #5D2427",
"g  c #53242A",
"h  c #5B2B2B",
"j  c #552729",
"k  c #4A3225",
"l  c #44342B",
"z  c #48372C",
"x  c #543C28",
"c  c #452333",
"v  c #482833",
"b  c #5B2B35",
"n  c #542A31",
"m  c #423B3D",
"M  c #473739",
"N  c #543B3D",
"B  c #593837",
"V  c #692A2B",
"C  c #6C392B",
"Z  c #6C332F",
"A  c #633836",
"S  c #723D35",
"D  c #793835",
"F  c #703530",
"G  c #594429",
"H  c #46433B",
"J  c #534133",
"K  c #664829",
"L  c #68542C",
"P  c #72562D",
"I  c #664636",
"U  c #764837",
"Y  c #6F5731",
"T  c #776130",
"R  c #051D4B",
"E  c #0B214B",
"W  c #12264B",
"Q  c #15294B",
"!  c #1A2D49",
"~  c #1D2E47",
"^  c #1A3C46",
"/  c #173149",
"(  c #1A3549",
")  c #193848",
"_  c #1F3046",
"`  c #21354B",
"'  c #273A49",
"]  c #353742",
"[  c #353B41",
"{  c #3A3C44",
"}  c #3B3C4A",
"|  c #3E3346",
" . c #3E3F50",
".. c #433948",
"X. c #403D54",
"o. c #1C4444",
"O. c #1E4A41",
"+. c #2D424A",
"@. c #3C4245",
"#. c #3D444A",
"$. c #344A4A",
"%. c #38474B",
"&. c #3E554A",
"*. c #444445",
"=. c #464A42",
"-. c #42454C",
";. c #424B4E",
":. c #4B4548",
">. c #435B49",
",. c #475648",
"<. c #434354",
"1. c #444C52",
"2. c #4C4B54",
"3. c #484659",
"4. c #465253",
"5. c #4A5355",
"6. c #4B5559",
"7. c #4D5C5C",
"8. c #4A5857",
"9. c #53545A",
"0. c #545959",
"q. c #5D4549",
"w. c #6E4D4B",
"e. c #4C6649",
"r. c #4F6949",
"t. c #516B48",
"y. c #5C7848",
"u. c #756D4B",
"i. c #4B4B63",
"p. c #4F4E6A",
"a. c #484663",
"s. c #525D62",
"d. c #51516D",
"f. c #565A65",
"g. c #555572",
"h. c #5A5A76",
"j. c #5B5B7B",
"k. c #575971",
"l. c #4F5069",
"z. c #536361",
"x. c #5B6D6A",
"c. c #5A6767",
"v. c #5E736F",
"b. c #5E7371",
"n. c #626C6C",
"m. c #646575",
"M. c #627673",
"N. c #647975",
"B. c #697B77",
"V. c #884638",
"C. c #93513C",
"Z. c #836D36",
"A. c #887538",
"S. c #895C41",
"D. c #9C5A43",
"F. c #A45945",
"G. c #9D7555",
"H. c #996250",
"J. c #AE6C4C",
"K. c #A96448",
"L. c #B06A4C",
"P. c #AD764E",
"I. c #B8724F",
"U. c #B7714F",
"Y. c #BB7852",
"T. c #977275",
"R. c #83747C",
"E. c #A47A70",
"W. c #759845",
"Q. c #6E8F46",
"!. c #7EA244",
"~. c #6C847E",
"^. c #70857C",
"/. c #B38858",
"(. c #85AB43",
"). c #8AB142",
"_. c #B1817B",
"`. c #CB9A65",
"'. c #CF9763",
"]. c #CCA168",
"[. c #D2A26B",
"{. c #E9BE7C",
"}. c #5F5F80",
"|. c #626284",
" X c #6B6B8D",
".X c #686889",
"XX c #6D738D",
"oX c #6E6E93",
"OX c #727294",
"+X c #787C9A",
"@X c #747796",
"#X c #7C7CA2",
"$X c #7C889A",
"%X c #768D84",
"&X c #81929F",
"*X c #9C8590",
"=X c #AC9398",
"-X c #8182A6",
";X c #858DA5",
":X c #8393A3",
">X c #8B94AB",
",X c #8894A9",
"<X c #9298B1",
"1X c #9CA7C3",
"2X c #A1ACC8",
"3X c #A6B1CC",
"4X c #ADB9D6",
"5X c #AAB6D4",
"6X c #B2BFDC",
"7X c #B3C0DE",
"8X c #BAC9E7",
/* pixels */
"  Q Q Q W Q Q Q Q Q Q Q Q Q Q Q Q Q Q Q Q Q Q d.h.Q Q Q Q Q Q Q Q Q Q Q Q Q Q Q Q Q Q Q Q Q Q Q ",
"  Q Q W W.' Q Q Q Q Q Q Q Q Q Q Q Q Q Q Q Q Q k.|.Q Q Q Q Q Q Q Q Q Q Q Q Q Q Q Q Q Q Q Q Q Q Q ",
"  Q Q Q ` Q Q Q Q Q Q Q Q Q Q Q Q Q Q Q Q Q Q Q d.;XQ Q Q Q W r.>.Q Q Q Q W W Q Q Q Q Q Q Q Q Q ",
"  Q Q Q Q Q Q Q Q Q Q Q Q Q Q Q Q Q Q >XQ Q 2XQ <X4XQ Q Q Q E W.y.Q Q Q E !.(.E Q Q Q Q Q Q Q Q ",
"  Q Q Q Q _ $.Q Q Q Q Q Q Q Q 7X8X4X2X1X<X5X6X1XQ Q 3XQ Q Q Q Q Q Q Q Q Q +.+.Q O.O.! Q Q Q Q Q ",
"  Q Q Q Q $.(.+.Q Q Q Q Q Q Q Q Q Q Q Q Q Q Q Q Q Q 1XQ Q Q Q X O X Q Q Q Q Q Q O.O.! Q Q R Q Q ",
"  Q Q Q Q Q (.&.Q Q O.o.Q Q Q Q Q Q Q Q Q Q $.=X` Q ! 6XQ . X o ; > ; Q ` ` Q Q ! ! Q Q +.).W Q ",
"  Q Q Q Q Q E Q Q Q O.O.Q Q Q Q Q Q Q Q Q E.E.T.H./ O.4X;XX O S.G.B s Q t.t.Q Q Q Q Q Q ' Q.W Q ",
"  Q Q Q Q Q Q Q Q Q / ! Q Q Q Q ! ` Q Q Q <XOXm.R.P.O.8 3...I /./.].U Q Q Q Q Q Q Q Q Q Q Q Q Q ",
"  Q Q Q Q Q Q ' y.Q Q Q ~ ~ Q Q e.!.Q Q Q 8X2X4X3X..} l.d.3.K.'.].[.G.Q Q Q Q Q Q Q Q Q Q Q Q Q ",
"  Q Q Q Q Q Q ` >.Q Q Q ! ! Q Q e.!.Q Q Q 2X5X>XQ  Xi.3.8 ..C.'.{.`.C.Q Q Q Q Q Q Q Q Q Q Q Q Q ",
"  Q Q Q Q Q Q Q Q Q Q Q Q Q Q Q >.Q.Q Q Q _.T.Q Q f.n.< : = J.F.`.P.= = x.Q Q Q Q Q Q Q Q Q Q Q ",
"  Q Q Q Q Q Q Q Q Q Q Q Q Q Q Q Q W Q Q J.I.D.Q ..2.*.* = c : c v c : ^.B.N.9.Q o.o.Q Q Q Q Q Q ",
"  Q Q Q Q Q ~ Q Q Q Q Q Q Q Q Q Q Q Q Q I.I.D...*.w.i k H G : : : = 0.B.n.n.N.%XO.O.! Q Q Q Q Q ",
"  Q Q Q Q Q ` ! Q Q Q Q / o.^ Q Q Q Q D.U.I.F.w.S L.V.M :.B g d i = 5.0.9.9.6.| ( ) Q Q Q Q Q Q ",
"  Q Q Q Q Q Q Q Q Q Q Q ( O.o.Q Q Q Q D.Y.U.K.J.S D h :.N b S f V p 2.n.f.c.2.*.Q Q Q Q Q Q Q Q ",
"  Q Q Q Q Q Q Q Q Q Q Q ! ^ ( Q Q Q Q V.Y.K.L.F.Z D -.M v S n j v 9 - v q.c.f.{ Q Q Q Q Q Q Q Q ",
"  Q Q Q Q Q Q Q Q Q Q Q Q Q Q Q Q Q Q Q Q Q Q i * 7 7 b Z g V f M *.q A *X5.c.*.Q Q Q Q Q Q Q Q ",
"  Q Q Q Q Q Q Q Q Q Q Q Q Q Q Q Q = : c : : ; = @ @ u.V A Z D g N m % 4 w.m.c.2.Q Q Q Q Q Q Q Q ",
"  Q Q Q Q Q Q Q Q Q Q Q ! Q Q * # # @ @ + @ @ @ + + C b C - n v 2 q + + l.3.m.f.Q Q Q Q Q Q Q Q ",
"  Q Q Q Q Q Q Q Q Q Q Q t Q # Q @ @ Q Q O = @ @ @ % C B A A I 0.s 2 + + # <.6.1.Q Q Q Q Q Q Q Q ",
"  Q Q ! o.o.Q Q Q Q Q Q Q Q Q Q Q Q : : : = @ + + L Z.T d f f M M 2 + @ # } 7.{ { Q Q _ Q Q Q Q ",
"  Q Q / O.o.Q Q Q Q Q Q Q Q Q Q Q : : # @ + + + + o V.J B U U q.N H % # ; } 7.[ @.! $.W.Q Q Q Q ",
"  Q Q Q / / Q Q Q Q Q Q Q Q Q Q = * @ + + + + + + 1 V.h d x S e ,.=., * 2 } s.7.3.^ Q W Q Q Q Q ",
"  Q Q Q Q Q Q Q Q Q Q Q Q Q Q Q # # + + + + + + + , C.n j s A e H =.7 # 9 } s.7..X( Q Q Q Q Q Q ",
"  Q Q Q Q Q Q Q Q Q Q Q Q Q Q Q = + + + + + + + + 4.U S h g n e =.z.5.7 9 } 7.8. XOXQ Q Q Q Q Q ",
"  Q Q Q Q Q Q Q Q Q Q Q Q Q O : # + + + + + + + + z.0 M 7 O < #.4.1.z.0 { #.8.w h.-XQ Q Q Q Q Q ",
"  Q Q Q Q Q Q Q Q Q Q Q Q : : # + + + + + + + + + z.0 } p O $ { ;.4.M.#.-.] ~.8.i.-XOXQ Q Q Q Q ",
"  Q Q Q Q Q c c c c : = # # @ + + + + + + + + + 5 M.6 { d - $ 6 4.8.~.6.#.;.b.s.<.oX-XQ Q Q Q Q ",
"  Q Q Q Q = # * * # # # # # # @ + + + + + + + + + c.5 } 7 < + [ z.8.B.7.% <.#.] a.h.-X+XQ Q Q Q ",
"  Q Q Q * # * * * ! * = # # + + + + + + + + + + + 7.[ } 0 < + , 7.z.s.N.| .Xi.p.d.d.oX-XQ Q Q Q ",
"  Q Q Q Q Q Q = = # @ + + + + + + + + + + + + + , 4.7.} #.5 + + #.8.1.~.]  Xj.d.d.d.j.-X+XQ Q Q ",
"  Q Q Q Q : a # @ + + + + + + + + + + + + + + + + 7.b.5.#.5 + @ { #.#.7.c.d..Xd.d.d.j.OX,XQ Q Q ",
"  Q Q ! _ Q # # @ + + + + + + + + + + + + + + + 4 7.v.;.z.#.+ # w c.4.1.N. .oXj.g.g.d.g.-X$XQ Q ",
"  * * * * * # # + + + + + + + + + + + + + + + + [ 6.v.N.v.5 + # < x.x.v.~.z.j.oXg.p.p.d.oX,XQ Q ",
"  Q Q Q = * = = * # # + @ @ + # @ + + + + + + + + [ 8.] @.#.+ # = #.} [ z.5 |.oXj.p.p.p.d.,X$XQ ",
"  Q Q Q Q Q * * * * # @ o o.^ Q # # # + + + + + + + #.@.#.0 + @ * < ] 5 #.4 X.oXoXg.j.}.d.@X,XQ ",
"  Q Q Q Q Q Q Q Q Q Q Q ( O.o.Q o # + + + + + + + + ;.5.@.{ + @ = Q { 8 1.4.4 |.oX|.d.d.d.g.:X+X",
"  Q Q Q Q Q Q Q Q Q Q Q ! ( ( Q + + + + + + + + + + < ;.@.z 3 # Q Q w #.} x.M R oXoXj.d.d.d.XX:X",
"  Q Q Q ! ! ! Q Q Q Q Q Q Q Q Q Q * @ + + + + + + + P A.T P k @ Q Q Q K L Z.P Q |.OX Xa.i.p.XX:X",
"  Q Q Q o.O.^ Q Q Q Q Q Q Q # = * # + + + + @ + + + Y Z.K P k # Q Q Q K K Z.K Q Q .X#Xj.d.d.XX$X",
"  Q Q Q ^ O.^ Q Q Q Q Q Q O # # + + + + + @ @ + + @ & 7 i _ &.= Q Q Q Q p z 3 ( Q j.+X-X@Xj.XX&X",
"  Q Q Q Q Q Q Q Q Q Q Q @ @ @ + + + + + + # + + @ Q 0 1.M $.).= E Q Q Q ; -.#.^ Q Q Q  X#X#XoX$X",
"  Q Q Q Q Q Q Q Q Q Q Q Q Q Q + + + Q Q # @ + + # Q #.-.d y W >.W Q Q Q , #.4.Q Q Q Q Q Q OX#X+X",
"  Q Q Q Q Q Q Q E Q Q Q Q Q Q Q Q Q Q # @ @ @ # 0 4.5.m G - Q Q Q Q Q Q 4 4.8.{ Q Q Q Q Q Q Q .X",
"  Q Q Q Q Q Q $.!.Q Q Q Q Q Q Q Q Q Q W e.W q z.8.1.{ k k - Q Q Q Q Q Q Q ;.7.b.5.Q Q Q Q Q Q Q ",
"  Q Q Q Q Q Q Q W Q Q Q Q Q Q Q Q Q Q Q Q Q ;.#.5 e d y y Q Q Q Q Q Q Q Q 0 8.M.x.Q Q Q Q Q Q Q ",
"  Q Q Q Q Q Q Q Q Q Q Q Q Q Q Q Q Q Q Q Q Q Q x u Q Q Q Q Q Q Q Q Q Q Q Q 2 l l 7 Q Q Q Q Q Q Q "
};
