/* XPM */
static char *d548b443f29442ccdb23fdb1aba1db53GeqeqYAncc1ROvjU[] = {
/* columns rows colors chars-per-pixel */
"48 48 10 1 ",
"  c #183F39",
". c #686F16",
"X c #72751B",
"o c #787B21",
"O c #1A2A40",
"+ c #276468",
"@ c #7F8124",
"# c #EFB775",
"$ c #3C9F9C",
"% c #EFD8A1",
/* pixels */
"XXXXXXXXXXXXXXXXXXXXXXXXXXXXXXXXXXXXXXXXXXXXXXXX",
"XXXXXXXXXXXXXXXXXXXXXXXXXXXXXXXXXXXXXXXXXXXXXXXX",
"XXXXXXXXXXXXXXXXXXXXXXXXXXXXXXXXXXXXXXXXXXXXXXXX",
"XXXXXXXXXXXXXXXXXXXXX$$$+++XXXXXXXXXXXXXXXXXXXXX",
"XXXXXXXXXXXXXXXXXXXXX$##   XXXXXXXXXXXXXXXXXXXXX",
"XXXXXXXXXXXXXXXXXXXXX$##   XXXXXXXXXXXXXXXXXXXXX",
"XXXXoooXXXXXXXXXXXXXX$$$$++XXXXXXXXXXXXXXXXXXXXX",
"XXXX..@@@XXXXXXXXXXXX   $++XXXXXXXXXXXXXXXXXXXXX",
"XXXX..@@@XXXXXXXXXXXX   $++XXXXXXXXXXXXXXXXXXXXX",
"XXXXXX@oooXXXXXoXXXXX    XXXXXXXXXXXXXXXXXXXXXXX",
"XXXXXX.oooXX@ooX$$$         ++$XXXXXXXXXXXXXXXXX",
"XXXXXX.oooXX@ooX$$$         ++$XXXXXXXXXXXXXXXXX",
"XXXXXX.ooooo@@@$           +$$$$$@XXXXXXXXXXXXXX",
"XXXXXXX...ooo..   $$$+++   +$$$$$$XXX@@@ooXXXXXX",
"XXXXXXX...ooo..   $$$+++   +$$$$$$XXX@@@ooXXXXXX",
"XXXXXXXXXX...   $$$$$++++   ++++++XXooo@XXXXXXXX",
"XXXXXXXXXXXX    $$$$$++++         XXooo.XXXXXXXX",
"XXXXXXXXXXXX    $$$$$++++         XXooo.XXXXXXXX",
"XXXXXXXXXX$$+++   $$$+++         +$$$..o@@XXXXXX",
"XXXXXXXXXX$$+++XXX $$+  %   XX.XX+$$$ooo..XXXXXX",
"XXXXXXXXXX$$+++XXX $$+  %   XX.XX+$$$ooo..XXXXXX",
"XXXXXXXXXX$$+XXXXXX     #  XXXXXX+$$.oo.XXXXXXXX",
"XXXXXXXXXX$$+XXXXXX$$$$$+%%%XXXXX+$$XXXXXXXXXXXX",
"XXXXXXXXXX$$+XXXXXX$$$$$+%%%XXXXX+$$XXXXXXXXXXXX",
"XXXXXXXXXXXX   XXX ++$++ %%#XXXXX   XXXXXXXXXXXX",
"XXXXXXXXXXXX   XXX ++$++ +++%%X   XXXXXXXXXXXXXX",
"XXXXXXXXXXXX   XXX ++$++ +++%%X   XXXXXXXXXXXXXX",
"XXXXXXXXXXXXXXXX   $$$$$ +++##X   XXXXXXXXXXXXXX",
"XXXXXXXXXXXXXXXX   ++$++   +++%XXXXXXXXXXXXXXXXX",
"XXXXXXXXXXXXXXXX   ++$++   +++%XXXXXXXXXXXXXXXXX",
"XXXXXXXXXXXXXXX    ++$++   +++#XXXXXXXXXXXXXXXXX",
"XXXXXXXXXXXXXXX      $      +++%%XXXXXXXXXXXXXXX",
"XXXXXXXXXXXXXXX      $      +++%%XXXXXXXXXXXXXXX",
"XXXXXXXXXXXXXXX               X##XXXXXXXXXXXXXXX",
"XXXX@@@XXXXXXooo$$   XXX    ++XXX%XXXXXXXXXXXXXX",
"XXXX@@@XXXXXXooo$$   XXX    ++XXX%XXXXXXXXXXXXXX",
"XXXXXX@ooXXXoooX$$+++XXX$$$+++XXX#XXXXXXXXX@@@XX",
"XXXXXX.oooXXoooXXX$++XXXX$$+XXXXXX%%oXXXooo@@XXX",
"XXXXXX.oooXXoooXXX$++XXXX$$+XXXXXX%%oXXXooo@@XXX",
"XXXXXX.oooXX...XXX$++XXXX$$+XXXXXX##@@@.ooo..XXX",
"XXXXXXX...XXXXXXXX$++XXXX$$+XXXXXXXX@ooo...XXXXX",
"XXXXXXX...XXXXXXXX$++XXXX$$+XXXXXXXX@ooo...XXXXX",
"XXXXXXXXXXXXXXXX$$$++XXXX$$+XXXXXXXX.oooXXXXXXXX",
"XXXXXXXXXXXXX  ++++++    ++$   XXXXXXXXXXXXXXXXX",
"XXXXXXXXXXXXX  ++++++    ++$   XXXXXXXXXXXXXXXXX",
"XXXXXXXXXXXX    OOOOOOOOO$$$++    XXXXXXXXXXXXXX",
"XXXXXXXXXXXXXXX      OOOO+++++O  XXXXXXXXXXXXXXX",
"XXXXXXXXXXXXXXX      OOOO+++++O  XXXXXXXXXXXXXXX"
};
