/* XPM */
static char * rip_xpm[] = {
"48 48 54 1",
" 	c #FFE527",
".	c #000000",
"+	c #1A1A1A",
"@	c #313131",
"#	c #404040",
"$	c #464646",
"%	c #272727",
"&	c #636262",
"*	c #7E7E7D",
"=	c #7F7E7E",
"-	c #7A6D0D",
";	c #BCA81A",
">	c #6E6E6E",
",	c #E8D023",
"'	c #CBB61D",
")	c #7B7B7B",
"!	c #676767",
"~	c #F0D724",
"{	c #BFAB1B",
"]	c #9E8E14",
"^	c #787878",
"/	c #6F6F6F",
"(	c #7D7C7C",
"_	c #636363",
":	c #6D6C6C",
"<	c #474746",
"[	c #686868",
"}	c #7B7A7A",
"|	c #757474",
"1	c #484848",
"2	c #767676",
"3	c #A89616",
"4	c #555555",
"5	c #4E4E4E",
"6	c #525252",
"7	c #7C7B7B",
"8	c #7A6D13",
"9	c #7C7C7C",
"0	c #C1B15B",
"a	c #F4DB25",
"b	c #5D5D5C",
"c	c #616160",
"d	c #626262",
"e	c #505050",
"f	c #545454",
"g	c #6C6B6B",
"h	c #585858",
"i	c #4A4A4A",
"j	c #7B7B7A",
"k	c #6B6A6A",
"l	c #515150",
"m	c #545353",
"n	c #666565",
"o	c #646363",
"  ......     .................................  ",
" .......    ..................................  ",
"....................+@#$$#@+....................",
"..................%$&*====*&$%......--..........",
".....;;..........@>==========>@.....,,..........",
".....;'-;;......@)!!=====$====)@................",
"......,~{;.....@)=!!=====$$====)@....,,.........",
"......- ].....%^/(==============^%...--.........",
"......-,......_=$/===============_..............",
".............+===========:========+...... ......",
".............<===========$========<...... ......",
".............[=====================.............",
";............}====$$$===:$==:$$$$==............ ",
" ............=====$=:$===$==:$=|12==..........3 ",
"  ...........=====$==$:==$:==$=2$2=...........3 ",
" ............=====$=$/===$:==$$$:==............ ",
" ............====/$45|===$===$=====.............",
".............====($264===$===$=====..3 .........",
"...... 3.....=====$==$:==$===$=====.............",
".............7=====================.............",
"...,,........(=====================.............",
"..;'-.. 3....}=====================8-...........",
"..;'';.......9=====================0,...........",
"...,a;.......======================b............",
".............===!!=========$$======c............",
".............===d5=================c............",
".............===24==================............",
".............=======================............",
".............============22=========  ..........",
".............=========$==ef=========............",
".............===:$$$==$$=$/$$$$!$$$=............",
".............====:$$==:$$$=/g$$!=$$=............",
".............====$$=====$===$$===$$=............",
".............===$$=====h6==$$===:$:=............",
".............===$$$$$==i4==$$$$$$$$=............",
".............==========42==/g=======............",
".....,-......=======================............",
".....,-...====================j===k=ll..........",
".....;;,-l=============================.........",
"...3 ;;,-l=lll==========================........",
".....;;..m=llllllllllllllllllllll.llnl==........",
".....;;..o=============================.........",
"......................................,-........",
"....................................-, -........",
"....................................-, .........",
"...................................... 3........",
" 3..........  ................................. ",
"  ........;;   ...............................3 "};
