/* XPM */
static char * seringue_xpm[] = {
"48 48 258 2",
"  	c #FFE527",
". 	c #000000",
"+ 	c #4B4B4B",
"@ 	c #545454",
"# 	c #7A6D0D",
"$ 	c #BCA81A",
"% 	c #9F98B5",
"& 	c #74669B",
"* 	c #E8D023",
"= 	c #4D4D4D",
"- 	c #CBB61D",
"; 	c #5C488F",
"> 	c #431884",
", 	c #6D5D97",
"' 	c #F0D724",
") 	c #BFAB1B",
"! 	c #B3B1B6",
"~ 	c #553D8B",
"{ 	c #716298",
"] 	c #9E8E14",
"^ 	c #F2F1F4",
"/ 	c #DDDBE2",
"( 	c #543A8A",
"_ 	c #948CAC",
": 	c #8479A4",
"< 	c #C2C1C3",
"[ 	c #BBB7C8",
"} 	c #4D268B",
"| 	c #79689F",
"1 	c #9B94B2",
"2 	c #8B81A8",
"3 	c #B0AAC1",
"4 	c #8C83A8",
"5 	c #4A2387",
"6 	c #4A2288",
"7 	c #716398",
"8 	c #F1F1F2",
"9 	c #867BA5",
"0 	c #8D84A8",
"a 	c #A8A3BA",
"b 	c #C8C6D2",
"c 	c #CAC7D4",
"d 	c #553E8B",
"e 	c #451F84",
"f 	c #746699",
"g 	c #ADACAF",
"h 	c #7A6D9F",
"i 	c #838092",
"j 	c #431984",
"k 	c #CAC7D3",
"l 	c #8F84AC",
"m 	c #604892",
"n 	c #9E97B5",
"o 	c #757575",
"p 	c #D2D0DA",
"q 	c #605090",
"r 	c #462085",
"s 	c #CAC8D4",
"t 	c #F2F1F3",
"u 	c #9387AF",
"v 	c #57437C",
"w 	c #58428C",
"x 	c #151515",
"y 	c #DCDBE1",
"z 	c #58418C",
"A 	c #52368A",
"B 	c #604E8F",
"C 	c #7D729F",
"D 	c #EDEDEE",
"E 	c #8B82A7",
"F 	c #73629C",
"G 	c #A89616",
"H 	c #DAD9E0",
"I 	c #563D8B",
"J 	c #D9D7DD",
"K 	c #A29CB6",
"L 	c #4B2489",
"M 	c #5C438F",
"N 	c #706198",
"O 	c #DBDAE0",
"P 	c #533B8A",
"Q 	c #522084",
"R 	c #D6D4DC",
"S 	c #A49DB8",
"T 	c #563E8B",
"U 	c #CFCDD8",
"V 	c #73629B",
"W 	c #522C8D",
"X 	c #481F87",
"Y 	c #978EB1",
"Z 	c #DBD9E1",
"` 	c #553D8A",
" .	c #C66C93",
"..	c #C781A0",
"+.	c #9C95B2",
"@.	c #EAEAED",
"#.	c #7C6DA3",
"$.	c #481F86",
"%.	c #A59EB9",
"&.	c #553C8A",
"*.	c #57408B",
"=.	c #D6D2CC",
"-.	c #EAD1A5",
";.	c #DD7894",
">.	c #B75E8E",
",.	c #4E288B",
"'.	c #5E4691",
").	c #72649A",
"!.	c #D1CFDA",
"~.	c #A9A4BD",
"{.	c #D6D3DE",
"].	c #54398B",
"^.	c #5A448D",
"/.	c #D7D4CD",
"(.	c #EDE6AA",
"_.	c #EDE5A6",
":.	c #E9D2A2",
"<.	c #DF7F98",
"[.	c #B66395",
"}.	c #75659C",
"|.	c #DFDEE4",
"1.	c #76699C",
"2.	c #5D468F",
"3.	c #AAA5BD",
"4.	c #EDD424",
"5.	c #CCC9D6",
"6.	c #4C2C87",
"7.	c #685695",
"8.	c #DBD6CF",
"9.	c #EDE5AA",
"0.	c #AEA596",
"a.	c #E3DCA6",
"b.	c #EAD3A6",
"c.	c #DE7B95",
"d.	c #D9ABBC",
"e.	c #716498",
"f.	c #F4DB25",
"g.	c #5A438E",
"h.	c #AFABBF",
"i.	c #C8C5D2",
"j.	c #492288",
"k.	c #6D5C97",
"l.	c #E1DDD1",
"m.	c #EDE5A8",
"n.	c #D6CE9F",
"o.	c #807091",
"p.	c #E3DBA5",
"q.	c #E3CEC1",
"r.	c #672E85",
"s.	c #D4C8A9",
"t.	c #574A79",
"u.	c #C5C3CF",
"v.	c #431983",
"w.	c #726399",
"x.	c #E5E1D0",
"y.	c #EDE5A7",
"z.	c #D4CC9F",
"A.	c #766996",
"B.	c #6F6197",
"C.	c #C9C6D2",
"D.	c #A9A3BC",
"E.	c #70629A",
"F.	c #E4E0CB",
"G.	c #EDE6A7",
"H.	c #D8D0A0",
"I.	c #E1D9A2",
"J.	c #E8E4D0",
"K.	c #6D5D96",
"L.	c #421883",
"M.	c #7E7C84",
"N.	c #C6C3D0",
"O.	c #716399",
"P.	c #E3DFCB",
"Q.	c #CCC39D",
"R.	c #6F5F88",
"S.	c #D8D3C7",
"T.	c #6F6098",
"U.	c #441A84",
"V.	c #9D9BA6",
"W.	c #C7C4D0",
"X.	c #E3DFCD",
"Y.	c #EDE6A9",
"Z.	c #BEB7BA",
"`.	c #461F85",
" +	c #9B98A5",
".+	c #73659A",
"++	c #E3DBA4",
"@+	c #726389",
"#+	c #E2DAA7",
"$+	c #E0DCD4",
"%+	c #614D92",
"&+	c #796B9E",
"*+	c #E7E2D0",
"=+	c #E3DBA3",
"-+	c #C1B99D",
";+	c #756899",
">+	c #53398B",
",+	c #E5E2D4",
"'+	c #C6BD9A",
")+	c #7B6A91",
"!+	c #E8E0AB",
"~+	c #EEE6AA",
"{+	c #DBD8CF",
"]+	c #543C8A",
"^+	c #E3E1D9",
"/+	c #EDE6AB",
"(+	c #EEE7AB",
"_+	c #C4BBA3",
":+	c #85768E",
"<+	c #D5D1CC",
"[+	c #523A89",
"}+	c #543C8B",
"|+	c #C7C5CB",
"1+	c #BBB6CA",
"2+	c #E6E4D8",
"3+	c #EEE6AC",
"4+	c #EEE7AE",
"5+	c #B0AAB3",
"6+	c #A7A2B9",
"7+	c #441B84",
"8+	c #72629A",
"9+	c #E8E5DA",
"0+	c #F0EABC",
"a+	c #DCD9D1",
"b+	c #9F9FA2",
"c+	c #686868",
"d+	c #DAD2A0",
"e+	c #77658F",
"f+	c #4E288C",
"g+	c #665295",
"h+	c #9E97B4",
"i+	c #513489",
"j+	c #563F8B",
"k+	c #BDA91A",
"l+	c #494949",
"m+	c #F2F2F3",
"n+	c #635290",
"o+	c #756190",
"p+	c #715E9C",
"q+	c #A09AB4",
"r+	c #5B458E",
"s+	c #E4DDCE",
"t+	c #F6F6F6",
"u+	c #B9B7C6",
"v+	c #E4E3E6",
"w+	c #9F9BA7",
"x+	c #6E6D6F",
"y+	c #BAB6C7",
"z+	c #E8E7EA",
"A+	c #BCB8C8",
"B+	c #EAE9EC",
"C+	c #F5F4F5",
"D+	c #BFBACB",
"E+	c #F3F3F4",
"F+	c #C1BCCC",
"G+	c #EFEEF0",
"H+	c #D9D8DF",
"I+	c #C4B461",
"    . . . . . .           . . + . . . . . . . . . . . . . . . . . . . . . . . . . . . . . .     ",
"  . . . . . . .         . . . . . . . . . . . . . . . . . . . . . . . . . . . . . . . . . .     ",
". . . . . . . . . . . . . . . . . . . . . . . . . . . . . . . . . . . . . . . . . . . . . . . . ",
". . . . . . . . . . . . . . . . . . . . . . . . . . . . . @ . . . . . . # # . . . . . . . . . . ",
". . . . . $ $ . . . . . . . . . . . . . . . . . . . . . . . . . . . % & * * . . . . = . . . . . ",
". . . . . $ - # $ $ . . . . . . . . . . . . . . . . . . . . . . . . ; > , . . . . . . . . . . . ",
". . . . . . * ' ) $ . . . . . . . . . . . . . . . . . . . . . . . . ! ~ > { * . . . . . . . . . ",
". . . . . . #   ] . . . . . . . . . . . . . . . . ^ . . . . . . . . . / ( > { . . . . . . . . . ",
". . . . . . # * . . . . . . . . . . . . . . . . . _ > : < . . . . . . [ > > } | . . . . . . . . ",
". . . . . . . . . . . . . . . . . . . . . . . . . 1 > > 2 . . . . . 3 > 4 > 5 6 7   . . . . . . ",
". . . . . . . . . . . . . . . . . . . . . . . . . 8 9 > > 0 . . . a > b c > d e > f . . . . . . ",
". . . . . . . . . . . . . . . . . . . . . . . . . . g h > > 0 . i j k 8 l m . . j > n . . . . . ",
"$ . . . . . . . . . . . . . . . . . . . . . . . . . o p > > > q r s t u v . . . . w . . x . .   ",
"  . . . . . . . . . . . . . . . . . . . . . . . . . y z A B > > C D E F . . . . . . . . . . G   ",
"    . . . . . . . . . . . . . . . . . . . . . . . H d I J K > > L M N . . . . . . . . . . . G   ",
"  . . . . . . . . . . . . . . . . G . . . . . . O P Q R S T U V W X Y . . . . . . . . . . . .   ",
"  . . . . . . . . . . . . . . . .   . . . . . Z T `  ...> +.@.#.$.> > %.. . . . . . . . . . . . ",
". . . . . . . . . . . . . . . . . . . . . . / &.*.=.-.;.>.,.'.).!.> > > ~.G   . . . . . . . . . ",
". . . . . .   G . . . . . . . . . # # . . {.].^./.(._.:.<.[.}.|.1.> 2.> > 3.. . . . . . . . . . ",
". . . . . . . . . . . . . . . . # 4.* . 5.6.7.8.9._.0.a.b.c.d.e.> f.. g.> > h.. . . . . . . . . ",
". . . * * . . . . . . . . . . . * * . i.j.k.l.m._._.n.o.p.q.r.> s.$ . . ~ > t.. . . . . . . . . ",
". . $ - # . .   G . . . . . . . . . u.v.w.x.y._._._._.z.A.B.> C.] . . # # D.U . . . . . . . . . ",
". . $ - - $ . . . . . . . . . . . b > E.F._.G._.H.I.y.J.K.L.M.. . . . * * . . . . . . . . . . . ",
". . . * f.$ . . . . . . . . . . N.> O.P._._._._.Q.R.S.T.U.V.. . . . . . . . . . . . . . . . . . ",
". . . . . . . . . . . . . . . W.> e.X._._._._._.Y.Z.> `.. . . . . . . . . . . . . . . . . . . . ",
". . . . . . . . . . . . . .  +> .+X._._._.++@+#+$+%+A . . . . . . . . . . . . . . . . . . . . . ",
". . . . . . . . . . . . . . > &+*+_.n.=+_._.-+;+z >+. . . . . . . . . . . . . . . . . . . . . . ",
". . . . . . . . . . . . . > > ,+_._.'+)+!+~+{+]+&.. . . . . . . . . . . . . . . . . . . . . . . ",
". . . . . . . . . . . . . > > ^+/+_.(+_+:+<+[+}+|+. . . . . . . . . . .     . . . . . . . . . . ",
". . . . . . . . . . . . . 1+> B.2+3+(+4+5+> ]+. . . . . . . . . . . . . . . . . . . . . . . . . ",
". . . . . . . . . . . . . 6+7+> 8+9+0+a+I P b+. . . . . . . . . . . . . . . . . . . . . . . . . ",
". . . . . . . . . . c+. . 7+d+e+f+g+h+i+j+. . k+  l+. . . . . . . . . . . . . . . . . . . . . . ",
". . . . . . . . . . . . m+n+o+p+q+> > r+s+. G     . . . . . . . . . . . . . . . . . . . . . . . ",
". . . . . . . . . . . t+u+v+w+. . . . x+        . . . . . . . . . . . . . . . . . . . . . . . . ",
". . . . . . . . . . t+y+z+. . . . . . #       . . . . . . . . . . . . . . . . . . . . . . . . . ",
". . . . . . . . . t+A+B+. . . . . . .         . . . . . . . . . . . . . . . . . . . . . . . . . ",
". . . . . * # . C+D+B+. . . . . . G .             . . . . . . . . . . . . . . . . . . . . . . . ",
". . . . . * # E+F+G+. . . . . . .         . . . G . . . . . . . . . . . . . . . . . . . . . . . ",
". . . . . $ $ H+# . . . . . . . . . . .   . . . . . . . . . . . . . . . . . . . . . . . . . . . ",
". . . G   $ I+* # . . . . . . . . . . . . . . . . . . . . . . . . . . . . . . . . . . . . . . . ",
". . . . . $ $ . . . . . . . . . . . . . . . . . . . . . . . . . . . . . . . . . . . . . . . . . ",
". . . . . $ $ . . . . . . . . . . . . . . . . . . . . . . . . . . . . . . . . . . . . . . . . . ",
". . . . . . . . . . . . . . . . . . . . . . . . . . . . . . . . . . . . . . * # . . . . . . . . ",
". . . . . . . . . . . . . . . . . . . . . . . . . . . . . . . . . . . . # *   # . . . . . . . . ",
". . . . . . . . . . . . . . . . . . . . . . . . . . . . . . . . . . . . # *   . . . . . . . . . ",
". . . . . . . . . . . . . . . . . . . . . . . . . . . . . . . . . . . . . .   G . . . . . . . . ",
"  G . . . . . . . . . .     . . . . . . . . . . . . . . . . . . . . . . . . . . . . . . . . .   ",
"    . . . . . . . . $ $       . . . . . . . . . . . . . . . . . . . . . . . . . . . . . . . G   "};
