/* XPM */
static char * Untitled_xpm[] = {
"48 48 17 1",
" 	c #FFE527",
".	c #000000",
"+	c #7A6D0D",
"@	c #BCA81A",
"#	c #E8D023",
"$	c #CBB61D",
"%	c #F0D724",
"&	c #BFAB1B",
"*	c #9E8E14",
"=	c #3D3603",
"-	c #A89616",
";	c #EDD424",
">	c #FAE026",
",	c #F4DB25",
"'	c #D6C01F",
")	c #E3CA21",
"!	c #BDA91A",
"  ......     .................................  ",
" .......    ..................................  ",
"................................................",
"....................................++..........",
".....@@.............................##..........",
".....@$+@@......................................",
"......#%&@...........................##.........",
"......+ *............................++.........",
"......+#........................................",
"...........................  ............ ......",
"......................................... ......",
"................................. *.............",
"@................................*=............ ",
" .............................................- ",
"  ............................................- ",
" ................-............................. ",
" ................ ..............................",
".....................................- .........",
"...... -.........++.............++..............",
"................+;#............@>,..............",
"...##...........##.............')@..............",
"..@$+.. -...................... *..++...........",
"..@$$@.............................##...........",
"...#,@..........................................",
"................................................",
"................................................",
"................................................",
"................................................",
"....................................  ..........",
"................................................",
"...................-............................",
"................... -..! .......................",
"...................  .-  .......................",
"....................    ........................",
"...................+   .........................",
"...................    .........................",
".....#+..........-.      .......................",
".....#+..........    ...-.......................",
".....@@#+........... ...........................",
"...- @@#+.......................................",
".....@@.........................................",
".....@@.........................................",
"......................................#+........",
"....................................+# +........",
"....................................+# .........",
"...................................... -........",
" -..........  ................................. ",
"  ........@@   ...............................- "};
