/* XPM */
static char * wall_xpm[] = {
"48 48 379 2",
"  	c #2A0E1B",
". 	c #381120",
"+ 	c #2C0D1C",
"@ 	c #250B19",
"# 	c #2D0E1C",
"$ 	c #34101F",
"% 	c #32111D",
"& 	c #4E1D28",
"* 	c #2A0D1B",
"= 	c #240B19",
"- 	c #260C1A",
"; 	c #290E1A",
"> 	c #2F0F1D",
", 	c #3E1422",
"' 	c #4E1D27",
") 	c #280D1A",
"! 	c #230B19",
"~ 	c #2F0E1D",
"{ 	c #3C1322",
"] 	c #391121",
"^ 	c #270D1A",
"/ 	c #4A1C25",
"( 	c #55212A",
"_ 	c #441823",
": 	c #2C0D1B",
"< 	c #381121",
"[ 	c #361020",
"} 	c #250C1A",
"| 	c #371120",
"1 	c #56212A",
"2 	c #431823",
"3 	c #3B1321",
"4 	c #3B1221",
"5 	c #280C1A",
"6 	c #4E1E26",
"7 	c #391320",
"8 	c #4D1D27",
"9 	c #401523",
"0 	c #391221",
"a 	c #3B1420",
"b 	c #4A1B25",
"c 	c #35101F",
"d 	c #3F1622",
"e 	c #4F1E27",
"f 	c #441923",
"g 	c #2B0E1B",
"h 	c #30101D",
"i 	c #38141F",
"j 	c #491B25",
"k 	c #2F101C",
"l 	c #4C1C27",
"m 	c #351020",
"n 	c #250C19",
"o 	c #3A1221",
"p 	c #34111E",
"q 	c #481A25",
"r 	c #3B1322",
"s 	c #290D1A",
"t 	c #592526",
"u 	c #552129",
"v 	c #521F28",
"w 	c #461925",
"x 	c #3E1423",
"y 	c #3F1523",
"z 	c #421723",
"A 	c #381220",
"B 	c #220B19",
"C 	c #391420",
"D 	c #330F1E",
"E 	c #270C1A",
"F 	c #31101D",
"G 	c #411723",
"H 	c #3F1721",
"I 	c #3B1520",
"J 	c #371020",
"K 	c #3B1222",
"L 	c #461A24",
"M 	c #37111F",
"N 	c #5F2828",
"O 	c #632A2A",
"P 	c #5C252A",
"Q 	c #4A1A26",
"R 	c #471A24",
"S 	c #300F1D",
"T 	c #320F1F",
"U 	c #310E1E",
"V 	c #250B1A",
"W 	c #421722",
"X 	c #511F28",
"Y 	c #481A26",
"Z 	c #2B0D1C",
"` 	c #290C1A",
" .	c #33101E",
"..	c #3D1422",
"+.	c #4F1F24",
"@.	c #4F2024",
"#.	c #471C21",
"$.	c #4B1B26",
"%.	c #32101D",
"&.	c #55202A",
"*.	c #3D1322",
"=.	c #421823",
"-.	c #2F0E1C",
";.	c #401623",
">.	c #57222A",
",.	c #210A19",
"'.	c #320F1E",
").	c #39131F",
"!.	c #39161D",
"~.	c #2E0F1C",
"{.	c #290D1B",
"].	c #2B0D1B",
"^.	c #531F29",
"/.	c #421624",
"(.	c #290C1B",
"_.	c #371220",
":.	c #501D28",
"<.	c #2C0E1C",
"[.	c #3E1522",
"}.	c #2E101C",
"|.	c #3B1521",
"1.	c #542029",
"2.	c #330F1F",
"3.	c #2D0D1C",
"4.	c #5B2528",
"5.	c #662C29",
"6.	c #4B1E22",
"7.	c #501E28",
"8.	c #451924",
"9.	c #4B1C25",
"0.	c #2E0E1D",
"a.	c #30111C",
"b.	c #411822",
"c.	c #501F28",
"d.	c #5D2629",
"e.	c #692E2A",
"f.	c #4E2022",
"g.	c #3C1422",
"h.	c #411623",
"i.	c #511E28",
"j.	c #4D1D26",
"k.	c #200A18",
"l.	c #2D0F1C",
"m.	c #260B1A",
"n.	c #5C2628",
"o.	c #522123",
"p.	c #2D0F1B",
"q.	c #32101E",
"r.	c #552029",
"s.	c #2E0E1C",
"t.	c #36121F",
"u.	c #31111D",
"v.	c #3F1621",
"w.	c #300E1D",
"x.	c #4E1E24",
"y.	c #401720",
"z.	c #411722",
"A.	c #37131F",
"B.	c #4C1D26",
"C.	c #34101E",
"D.	c #4C1C26",
"E.	c #4C1B26",
"F.	c #401722",
"G.	c #431923",
"H.	c #471925",
"I.	c #501F26",
"J.	c #522025",
"K.	c #3C161F",
"L.	c #4B1B27",
"M.	c #3E1621",
"N.	c #642A2A",
"O.	c #5F2827",
"P.	c #451C20",
"Q.	c #280C1B",
"R.	c #35111F",
"S.	c #310F1E",
"T.	c #35121E",
"U.	c #3D1421",
"V.	c #612929",
"W.	c #3A161E",
"X.	c #36111F",
"Y.	c #532029",
"Z.	c #2E101B",
"`.	c #5E2827",
" +	c #38151D",
".+	c #3A1321",
"++	c #411524",
"@+	c #2B0F1A",
"#+	c #4B1C26",
"$+	c #451825",
"%+	c #451923",
"&+	c #451824",
"*+	c #481A24",
"=+	c #3D1620",
"-+	c #5D2628",
";+	c #5C2727",
">+	c #512027",
",+	c #381221",
"'+	c #3F1423",
")+	c #521F29",
"!+	c #421822",
"~+	c #2C0F1B",
"{+	c #57212A",
"]+	c #552128",
"^+	c #34121D",
"/+	c #2F0F1C",
"(+	c #35111E",
"_+	c #36121E",
":+	c #421A1F",
"<+	c #61282A",
"[+	c #3F181E",
"}+	c #4B1E23",
"|+	c #36141D",
"1+	c #471924",
"2+	c #4E1F24",
"3+	c #3B171D",
"4+	c #300E1E",
"5+	c #3A1520",
"6+	c #33111E",
"7+	c #3E1521",
"8+	c #622A29",
"9+	c #4B1F22",
"0+	c #4D1C27",
"a+	c #4F1D28",
"b+	c #391220",
"c+	c #542324",
"d+	c #532125",
"e+	c #37131E",
"f+	c #2C0E1B",
"g+	c #3D1521",
"h+	c #532124",
"i+	c #4D1F23",
"j+	c #240C19",
"k+	c #441824",
"l+	c #260D19",
"m+	c #4C1B27",
"n+	c #33121D",
"o+	c #230A19",
"p+	c #522124",
"q+	c #4E2023",
"r+	c #2D0E1B",
"s+	c #59232A",
"t+	c #612928",
"u+	c #652B29",
"v+	c #642B29",
"w+	c #522223",
"x+	c #361120",
"y+	c #441C20",
"z+	c #310F1D",
"A+	c #481B24",
"B+	c #220A19",
"C+	c #2B0F1B",
"D+	c #491D22",
"E+	c #682D2A",
"F+	c #34121E",
"G+	c #431723",
"H+	c #421623",
"I+	c #4C1D27",
"J+	c #542225",
"K+	c #32121C",
"L+	c #37121F",
"M+	c #502023",
"N+	c #632A29",
"O+	c #5B2429",
"P+	c #4E1D26",
"Q+	c #602928",
"R+	c #511F29",
"S+	c #5C2726",
"T+	c #481B25",
"U+	c #33121C",
"V+	c #31111C",
"W+	c #672C2A",
"X+	c #4A1C26",
"Y+	c #36131E",
"Z+	c #652B2A",
"`+	c #39151D",
" @	c #5D2727",
".@	c #672D2A",
"+@	c #4E1F23",
"@@	c #5C2529",
"#@	c #3A151E",
"$@	c #441724",
"%@	c #511E29",
"&@	c #481925",
"*@	c #622929",
"=@	c #5A2429",
"-@	c #471926",
";@	c #4A1B26",
">@	c #411622",
",@	c #5B252A",
"'@	c #61282B",
")@	c #4A1D22",
"!@	c #300F1E",
"~@	c #461825",
"{@	c #592329",
"]@	c #532225",
"^@	c #401721",
"/@	c #522027",
"(@	c #411821",
"_@	c #491A26",
":@	c #33121E",
"<@	c #5C2528",
"[@	c #4C1F22",
"}@	c #501E27",
"|@	c #62292A",
"1@	c #532324",
"2@	c #38131F",
"3@	c #4E1E27",
"4@	c #3A1420",
"5@	c #54202A",
"6@	c #532224",
"7@	c #2D0D1D",
"8@	c #58222B",
"9@	c #552424",
"0@	c #2B0C1C",
"a@	c #3C1421",
"b@	c #3C1520",
"c@	c #411523",
"d@	c #2A0C1C",
"e@	c #431824",
"f@	c #491C23",
"g@	c #35121D",
"h@	c #461824",
"i@	c #401622",
"j@	c #441725",
"k@	c #2A0D1C",
"l@	c #602828",
"m@	c #411820",
"n@	c #60282A",
"o@	c #5F272A",
"p@	c #3A1222",
"q@	c #4E1C27",
"r@	c #5D252A",
"s@	c #491A25",
"t@	c #441A21",
"u@	c #3C1522",
"v@	c #602927",
"w@	c #471C20",
"x@	c #36101F",
"y@	c #3F1722",
"z@	c #3E1721",
"A@	c #41191F",
"B@	c #5F2928",
"C@	c #481B23",
"D@	c #4F1E28",
"E@	c #35131D",
"F@	c #39141F",
"G@	c #4F1D27",
"H@	c #351120",
"I@	c #35131E",
"J@	c #582329",
"K@	c #512223",
"L@	c #592427",
"M@	c #3E181E",
"N@	c #3F1820",
"O@	c #2C0F1A",
"P@	c #4D1C28",
"Q@	c #37121E",
"R@	c #260C19",
"S@	c #290E1B",
"T@	c #421724",
"U@	c #280D1B",
"V@	c #471D20",
"W@	c #5F2829",
"X@	c #3F181F",
"Y@	c #612A28",
"Z@	c #612A27",
"`@	c #521E28",
" #	c #56222A",
".#	c #642B2A",
"+#	c #451B21",
"@#	c #200A13",
"##	c #1F0913",
"$#	c #401821",
"%#	c #5A242A",
"&#	c #5B242A",
"*#	c #3C171E",
"=#	c #461923",
"-#	c #552227",
"  . + @ # $ % & * @ @ = - ; > , ' ) ! ! ! ~ { ] ! ! ^ / ( _ : < [ ! } | ' 1 2 # 3 4 5 - 6 7 2 1 ",
"8 9 0 | ~ a b > } c | + d e f g h = ! ! ! } i j ! ! = k l f - ~ m n c o p q 2 n ~ r c s t u v 1 ",
"w x { { y z A B = < { [ A 0 C $ $ D E ! ! ! F G ! ! n H v e I + J c K ~ @ L 2 = + r o M N O P 1 ",
"{ { { { Q R = ! = < { { S } T { { r U V ! ! * [ ! - W X 1 1 Y Z r { { ` ! L 2 = E  .o ..+.@.#.$.",
"{ { { { Q l %.! =  .c c ~ S { { { { { # ! ! * [ = * &.1 1 1 Y Z r *.=.* ! L 2 = ! - 0 { *.-.! ;.",
"{ { { 9 l >.v ,.! ! ! - '.r < { { { < ).!.~.{.$ ].o v ( 1 ^./.(._.y :.<.! [.z }.! } 0 { ] * B |.",
"{ { { $.1.( X ,.! ! ! $ r 2.# 3 { r 3.4.5.6.! * o { 9 7.1 8.E ! - { ..` ! } z 9.,.} < r 0.= ! n ",
"{ { { p a.b.c.,.! ! ! c { 2.- * o r ].d.e.f.B B ].o g.h.i.2 = ! 5 K { ` ! ! z j.k.! ` o 0 * ! ! ",
"{.. K + ! ) l.! ! ! ! c { 2.! E J {.m.n.o.p.(.q.E 0 { { %.s ! ! ! {.0 {.! ! z r.R - E o { s.! ! ",
"= 0.[ d t.u.v.B ! ! ! c { 2.*  .< '.w.x.y.! * < '.w.o r ].! ! ! ! - 0 z.l.A.' 1 B.- E o { C.+ ! ",
"! ! s.D.E.F.G.B ! ! ! c { c 2.{ [.H.I.J.K.! * | '.n [ c ].! ! ! ! - 0 L.F L 1 v M.n ! D $ | $ ].",
"% - h D.1 R n ! ! ! ! c { { { { , X N.O.P.! * [ Q.! D {.! ! ! ! ! @ R.o p H.1 j.,.! ! ! ! S.0 '.",
"v T.9.1 1 R } ! ! ! ! c { r o { { U.V.W.- ! <.K < E n = ! ! ! ! ! ! @ X.' 1 ( $.,.! ! ! ! @ ~ o ",
"&.( 1 r.r.q ) ! ! ! @ c { 2.A.Y.7.Z.`. +B ~ .+++i.9 @+; @ = # { { 0 5 @ #+1.z.n # r 0 E = ! ! > ",
"$+^.1 %+&+Y.*+B ! @ $ .+{ 2.* T.% @+O. +! } {.<.=+-+;+>+%.Z ,+{ { { | E h T.g ].A { r | 5 ! ! S ",
"'+)+!+~+y {+X ,.! - A { { 2.! ! ! ) ]+^+/+(+(+(+_+:+P <+[+S.{ { J s..+m 5 ! # X.{ { { { m - ! 5 ",
"'+)+%.B R.$.c.,.! = Z . { 2.! ! {.G.Y.%. .{ { { o U z.}+|+S.{ { [ = 0.1+2+3+4+{ { { { { { S.5+G.",
"'+)+6+! = 7+c.,.! ! ! c { 2.! ! <.Y.X %. .{ { { { < + = - R.{ { | * = Y 8+9+~.[ { { { [ m F.0+1 ",
"x a+6+! ! 7+c.,.! ! ! c { 2.! ! <.)+w.c { { { { { { 3   R.{ 0 A b+4 S.m.c+d+e+* A b+| V ,.L ^.^.",
"r , f+! ! g+e B ! ! ! c { 2.! ! ~.i.S.c { { { { { r .+* [ { p } E x X /+; h+i+j+} } } ! = ) =.k+",
"{.A < ].! l+~.c @ ! ! c { T ! f+m+F X.{ { { { { 0 * m * [ { p B f+{+O n+o+p+q+V B @ @ = D {.].* ",
"@ | { o ~ ! - 0 - ! = 8.)+&+B - p - | { { { { { A } E = [ { p B r+>.s+N t+u+v+w+u.e 0+g x+b d y+",
"= 0.| { | z+'.,+- ! = A+1 9.B+C+D+) | { { { { { A } ! ! [ { p B f+1 1 5.E+E+E+4.F+( G+C.H+1.I+J+",
"! ! s.0 { { . s.@ ! = A+1 9.B+K+t+~+| { { L+S [ &+) ! ! [ { p <.h.1.w M+N+E+E+4.l.h.` r i.1 1 O+",
"! ! ! 0.o o 2.! ! ! = A+1 P+l.K+Q+~+| { { S ! F i.# h ^ [ { p T.7.R+l.n S+E+E+4.B+Q.].| q ' v 1 ",
"! ! ! = s.'.- ! ! ! = 8.1 1 T+U+Q+V+X.{ { $ ! F i.~ i.T.[ { p Z 9 )+l.n S+E+W+t ].o ] - @ @ !+1 ",
"! ! ! ! ! ! ! ! ! ! ! ! _ r.X+Y+Z+u+`+c { S E F 1 ( 1.Y+[ { p i 1.R+l.)  @.@+@T.8 ..o - ! = z.1 ",
"! ! ! ! ! ! ! ! ! ! ! ! l.z.1.a+@@u+#@$ { $@k+%.1 1 1.T.R.{ p i r.%@l.&@*@<+f {.L+{ o - B B z.1 ",
"! ! ! ! ! ! ! ! ! ! ! ! ! f+z 1 {+=@F+$ { $.' [ -@-@-@;@T.c | >@&.r.j.1 ,@'@)@= + r 0 E H+9.i.L.",
"! ! ! ! 5 ].! ! ! ! ! ! ! B i ( 1 1.!@$ { $@~@{ { { '+{@]@^@$ H.( 1 1 1 1 /@(@# + .._@G.X 1 ' .+",
"! ! ! 5 D $ ].! ! ! ! ! ! ! $ 8 e 1.:@$ { { { { 4 m '+<@W+[@+ H.( 1 1 }@r.F.4+c ~ b+1.1 1 X G  .",
"! ! ! S.{ { [ Q.= ! ! ! ! ! ! ,.{.X+> $ { { x /.[.- [ & |@1@2@h.7.&.e # j.^@~ { | {.D.3@3@4@b.d ",
"! ! = !@{ { r | - ! ! ! ! ! ! ! = ) = $ { { $+5@a+Z * B.<+W+6@7@x R+F V j.^@~ { | - {.  s b 2 E ",
"! ! $ K { { { o < 5 ! ! ! ! ! ! ! ! B c { _@r.1 i.<.^ B.8@|@9@0@r a@) m.j.^@~ { o < < < < S  .] ",
"! ! R.{ { X.<.{ r 5 ! ! ! ! ! ! ! ! ! $ { 9 _@1 i.<.= ~.P+'@9@0@r 0 ) A+1.^@~ { { { { { S = z+{ ",
"! ! 0.S.$ $ n S.o 5 ! ! ! ! ! ! ! n b@p | { c@0+Y.2 } B+9.'@9@d@r K '.H.e@ .4+{ < '.0 *.f@g@z+{ ",
"! ! ! ! # $ = C+h@5 ! ! ! ! ! ! ! - i@/+* | { j@1 1 h.k@9.'@4..+'.{ { o (.! 4+{ < ~ '...l@m@z+{ ",
"! ! ! - ~ A /+~ v ~.! ! ! ! ! = 5 Q.Q.= ! s.o ++)+)+i.a I.n@o@j # { { K (.! 4+{ { 3 # b+N m@~ o ",
"! ! ! q.o H.e F )+~.! ! ! ! ! - < o p@* ! ! Z K ....y q@o@r@{+q # { { < {.! 4+r < ] o r+ @m@! F ",
"! ! = $ *.s@( ( &.F = ! ! ! # r { { { o 0.} # o { { { *., $.w g 0 { { {.! = 4+$ E g 1.>.N.t@^ h ",
"! ! D o ~@^.1 1 1 ' ~.! ! ! # { { { { S = u@8.~ { { { { { c@A = * o { ` ! S z+(+8.g r.>.Z+v@w@0.",
"! ! J { Q 1 1 1 1 u u.! ! ) x@{ 0 s.b+# B %.y@2 ~ o { { { { p ! ! s.o ` ! $ '.# z@9.r.z@A@B@t+C@",
"= Z 0 $+D@e R 1 1 1 i+E@! ~ { r S.} . '.) B F@G@V S o { { H@~ * ! = S - ! $ '.! I@( r.G.F.J@Z+K@",
"@ | { Y q@z./+P+( 1 L@M@B ~ { o - = S.o X.# F@7.T.T.p o r 3.: . + ].].].].X. .* q.E.0+q@1.1 r@d+",
"@ c o { z+B ! 0.^.1 N@O@! ~ { o {.! B m P@w F.( X 1 Q@X.0 3.: { { { { { { { { . l.B B = %+e e )+",
"= - J {  .! ! ~ 1.1 *@P.B ~ { { | V ! c $.r.1.P+6+)+v L+p 3.: { { { { { { { { 2 / ) R@R@)   S@T@",
"| U@[ {  .! ! } S )+Z+V@B # p@{ o | 5 c ;@1 j.* = s.1 W@X@V : { K r p@{ { z+5 2@{@Y@Z@v@W.= @ 5 ",
".+{.E '. .! ! ! - `@Z+V@B = ~ { { { ,+4 $.1 #+= ! 5  #.#Q++#+ C.@#c ##| l b@B E $#%#&#Z+*#=#' -#"};
