/* XPM */
static char * zyzz_xpm[] = {
"48 48 604 2",
"  	c #FFE527",
". 	c #000000",
"+ 	c #626165",
"@ 	c #9B96A5",
"# 	c #292734",
"$ 	c #7B7B7D",
"% 	c #9FA0A4",
"& 	c #C0BCC1",
"* 	c #494552",
"= 	c #131315",
"- 	c #C0B9BB",
"; 	c #EEEEE8",
"> 	c #B8AFB1",
", 	c #636063",
"' 	c #09090C",
") 	c #73707B",
"! 	c #625D6B",
"~ 	c #615E68",
"{ 	c #565161",
"] 	c #7A6D0D",
"^ 	c #BCA81A",
"/ 	c #8F8A8D",
"( 	c #7D7A80",
"_ 	c #464657",
": 	c #4B485B",
"< 	c #554C64",
"[ 	c #3A3747",
"} 	c #0F1018",
"| 	c #E8D023",
"1 	c #CBB61D",
"2 	c #494445",
"3 	c #EEDED4",
"4 	c #B5A9A9",
"5 	c #414056",
"6 	c #2B2634",
"7 	c #1C1A23",
"8 	c #23202A",
"9 	c #12131C",
"0 	c #F0D724",
"a 	c #BFAB1B",
"b 	c #322D2F",
"c 	c #DCCDCA",
"d 	c #EDD6CE",
"e 	c #A1979D",
"f 	c #1B1D28",
"g 	c #9E8E14",
"h 	c #C1AFAA",
"i 	c #F8F1E9",
"j 	c #E3CCC3",
"k 	c #4F464D",
"l 	c #EDD7CD",
"m 	c #F6E4DD",
"n 	c #A99293",
"o 	c #201B25",
"p 	c #A58E89",
"q 	c #E5C9C0",
"r 	c #D5B9B0",
"s 	c #786770",
"t 	c #2D282D",
"u 	c #B29494",
"v 	c #CCAFAA",
"w 	c #B39995",
"x 	c #66606D",
"y 	c #40393E",
"z 	c #907777",
"A 	c #8C7777",
"B 	c #695B62",
"C 	c #0D0C11",
"D 	c #828181",
"E 	c #7A7B7D",
"F 	c #372E33",
"G 	c #9F8482",
"H 	c #6A575D",
"I 	c #897879",
"J 	c #151928",
"K 	c #565C78",
"L 	c #2C2F3A",
"M 	c #1F2028",
"N 	c #706F6E",
"O 	c #E0D3CB",
"P 	c #C8BDBB",
"Q 	c #E3DED9",
"R 	c #84827E",
"S 	c #3D3603",
"T 	c #382E30",
"U 	c #B29288",
"V 	c #DFC3B9",
"W 	c #C8B0A8",
"X 	c #312D2D",
"Y 	c #272B3C",
"Z 	c #83787B",
"` 	c #AFAAA7",
" .	c #837E84",
"..	c #6A6573",
"+.	c #B6ACAE",
"@.	c #61565E",
"#.	c #44424D",
"$.	c #6E6568",
"%.	c #E5DECF",
"&.	c #CECDC8",
"*.	c #242321",
"=.	c #A89616",
"-.	c #2B252B",
";.	c #7F6663",
">.	c #C8A69B",
",.	c #DCBFB3",
"'.	c #BBA69F",
").	c #252B3C",
"!.	c #81706F",
"~.	c #AB9994",
"{.	c #DBD3CC",
"].	c #C1ABA6",
"^.	c #786D76",
"/.	c #3C3549",
"(.	c #484855",
"_.	c #59505D",
":.	c #1D191F",
"<.	c #5C565C",
"[.	c #DCD2C7",
"}.	c #DED7CF",
"|.	c #1A1A19",
"1.	c #2E292D",
"2.	c #715A57",
"3.	c #A88982",
"4.	c #B5958C",
"5.	c #D0AD9D",
"6.	c #070504",
"7.	c #292E3A",
"8.	c #9D8580",
"9.	c #B6A6A2",
"0.	c #7C6C6C",
"a.	c #DDCEC7",
"b.	c #B7A49D",
"c.	c #3E415A",
"d.	c #211D23",
"e.	c #867371",
"f.	c #EADACB",
"g.	c #E6E2D9",
"h.	c #322B2B",
"i.	c #947670",
"j.	c #AD8E86",
"k.	c #9B7B75",
"l.	c #C6A193",
"m.	c #4C3E3B",
"n.	c #333745",
"o.	c #AE8E85",
"p.	c #BA9F99",
"q.	c #D1C1C0",
"r.	c #DAC5BF",
"s.	c #BDA39D",
"t.	c #43485D",
"u.	c #443E4A",
"v.	c #998580",
"w.	c #DDD3CB",
"x.	c #BBB4B0",
"y.	c #2A2227",
"z.	c #7E635E",
"A.	c #AD8D86",
"B.	c #A3847D",
"C.	c #AD8B81",
"D.	c #443632",
"E.	c #363C4B",
"F.	c #907A79",
"G.	c #C3A9A5",
"H.	c #C0A9A6",
"I.	c #E5CEC6",
"J.	c #AE9590",
"K.	c #343C53",
"L.	c #252532",
"M.	c #434149",
"N.	c #6F6C73",
"O.	c #9C999C",
"P.	c #A9A6A7",
"Q.	c #140F11",
"R.	c #463B41",
"S.	c #90716A",
"T.	c #A28376",
"U.	c #8D6F69",
"V.	c #D3BEB5",
"W.	c #4F4847",
"X.	c #333747",
"Y.	c #433744",
"Z.	c #776261",
"`.	c #988988",
" +	c #928281",
".+	c #675B61",
"++	c #29314A",
"@+	c #3C3E43",
"#+	c #4F4F58",
"$+	c #6B6972",
"%+	c #908B91",
"&+	c #352E37",
"*+	c #473A3D",
"=+	c #83685F",
"-+	c #91776F",
";+	c #DEC9BA",
">+	c #E2D2C4",
",+	c #6B6260",
"'+	c #624D4D",
")+	c #3C3033",
"!+	c #332F37",
"~+	c #35333E",
"{+	c #363844",
"]+	c #353B4A",
"^+	c #282A2E",
"/+	c #8F939A",
"(+	c #B8BCC7",
"_+	c #727379",
":+	c #4B4951",
"<+	c #54525A",
"[+	c #6D6B70",
"}+	c #474546",
"|+	c #453F41",
"1+	c #2C2B32",
"2+	c #514446",
"3+	c #947F7D",
"4+	c #BDA399",
"5+	c #F8F0E1",
"6+	c #D4C4B7",
"7+	c #BC9484",
"8+	c #614F4F",
"9+	c #352D34",
"0+	c #644D4C",
"a+	c #574E53",
"b+	c #696A6E",
"c+	c #C2BAB8",
"d+	c #BEBCC0",
"e+	c #B1B3BB",
"f+	c #A5A4A7",
"g+	c #78777D",
"h+	c #5B545B",
"i+	c #645A5A",
"j+	c #191719",
"k+	c #2D2B32",
"l+	c #60565A",
"m+	c #807374",
"n+	c #907872",
"o+	c #E5C4B0",
"p+	c #F5E4CF",
"q+	c #F1D9C6",
"r+	c #BBA39B",
"s+	c #554245",
"t+	c #AE8676",
"u+	c #796361",
"v+	c #837976",
"w+	c #B9B5B5",
"x+	c #A7A7AE",
"y+	c #93837F",
"z+	c #68656A",
"A+	c #6A6D77",
"B+	c #807C81",
"C+	c #504D56",
"D+	c #272B36",
"E+	c #353136",
"F+	c #AF9B96",
"G+	c #D2C4C0",
"H+	c #887370",
"I+	c #B28A79",
"J+	c #DFB49F",
"K+	c #F1D0BC",
"L+	c #F6DFCD",
"M+	c #D7AE9B",
"N+	c #D9AF9C",
"O+	c #D0A894",
"P+	c #D7BDAF",
"Q+	c #C4C0BF",
"R+	c #7D787A",
"S+	c #4A3E3C",
"T+	c #69605F",
"U+	c #777074",
"V+	c #5B5960",
"W+	c #2A2F3E",
"X+	c #11151C",
"Y+	c #F4DB25",
"Z+	c #332827",
"`+	c #BDA59F",
" @	c #CEB9B2",
".@	c #665554",
"+@	c #8D695C",
"@@	c #BC907E",
"#@	c #D9AC96",
"$@	c #DAAC97",
"%@	c #CD9E88",
"&@	c #EAC4B2",
"*@	c #F3DBC7",
"=@	c #EECBB6",
"-@	c #B8A299",
";@	c #635858",
">@	c #302D33",
",@	c #2F2E36",
"'@	c #2D2F39",
")@	c #2B303B",
"!@	c #161A23",
"~@	c #241D1D",
"{@	c #7B655E",
"]@	c #B6968B",
"^@	c #7D645F",
"/@	c #896759",
"(@	c #957263",
"_@	c #AF8776",
":@	c #C29079",
"<@	c #C79880",
"[@	c #EAC2AE",
"}@	c #DBAE99",
"|@	c #D6AA97",
"1@	c #B48E80",
"2@	c #464149",
"3@	c #292A34",
"4@	c #2D2E36",
"5@	c #12141A",
"6@	c #030405",
"7@	c #181314",
"8@	c #5E4B48",
"9@	c #957464",
"0@	c #A78978",
"a@	c #926E60",
"b@	c #90695C",
"c@	c #9F7768",
"d@	c #A97F6E",
"e@	c #BC8C77",
"f@	c #E1B6A0",
"g@	c #DCAF9A",
"h@	c #C29683",
"i@	c #97756B",
"j@	c #655C62",
"k@	c #161820",
"l@	c #161315",
"m@	c #4F3D3A",
"n@	c #A88273",
"o@	c #CAA38E",
"p@	c #987563",
"q@	c #70544E",
"r@	c #856358",
"s@	c #AD8370",
"t@	c #BE8D77",
"u@	c #CC9E88",
"v@	c #BF907B",
"w@	c #9D7565",
"x@	c #755A55",
"y@	c #2A2426",
"z@	c #4D4236",
"A@	c #9F7B6A",
"B@	c #BF9781",
"C@	c #A9816F",
"D@	c #7F5F55",
"E@	c #70544C",
"F@	c #987162",
"G@	c #A17866",
"H@	c #AE826E",
"I@	c #A27766",
"J@	c #7A5A50",
"K@	c #634F4E",
"L@	c #080607",
"M@	c #BDA931",
"N@	c #604841",
"O@	c #967060",
"P@	c #916C5D",
"Q@	c #A6806E",
"R@	c #866357",
"S@	c #6E524B",
"T@	c #75564D",
"U@	c #664744",
"V@	c #846158",
"W@	c #8A6659",
"X@	c #69534F",
"Y@	c #090808",
"Z@	c #0F0D0F",
"`@	c #3F3331",
" #	c #5C4741",
".#	c #76594E",
"+#	c #927266",
"@#	c #9E786B",
"##	c #AA887C",
"$#	c #CEB09D",
"%#	c #CFB09E",
"&#	c #977163",
"*#	c #7C594E",
"=#	c #553E3B",
"-#	c #2E2A2F",
";#	c #423230",
">#	c #775A52",
",#	c #A78071",
"'#	c #9E796C",
")#	c #AE8474",
"!#	c #AD8472",
"~#	c #9B7565",
"{#	c #936C5D",
"]#	c #7E5C52",
"^#	c #5A4B4A",
"/#	c #28272D",
"(#	c #4D3C3A",
"_#	c #7E6056",
":#	c #7A5F5C",
"<#	c #7F655D",
"[#	c #B18979",
"}#	c #977162",
"|#	c #967266",
"1#	c #9C7464",
"2#	c #7F5C51",
"3#	c #040100",
"4#	c #0A0809",
"5#	c #413331",
"6#	c #493633",
"7#	c #6B5654",
"8#	c #6C5551",
"9#	c #674942",
"0#	c #57403B",
"a#	c #5F4744",
"b#	c #533D37",
"c#	c #5D433D",
"d#	c #443F4E",
"e#	c #010101",
"f#	c #2C252A",
"g#	c #423330",
"h#	c #423C3F",
"i#	c #29272C",
"j#	c #5F4B48",
"k#	c #755850",
"l#	c #65524E",
"m#	c #74554D",
"n#	c #55403C",
"o#	c #4A3F41",
"p#	c #302C31",
"q#	c #453636",
"r#	c #433A3B",
"s#	c #23232B",
"t#	c #282429",
"u#	c #463734",
"v#	c #4C3936",
"w#	c #453331",
"x#	c #553F3D",
"y#	c #674D46",
"z#	c #332E33",
"A#	c #4F3C38",
"B#	c #4C4449",
"C#	c #474148",
"D#	c #3D393C",
"E#	c #725F5C",
"F#	c #7A5F58",
"G#	c #7D5C51",
"H#	c #5F453E",
"I#	c #62463C",
"J#	c #333037",
"K#	c #362B2B",
"L#	c #473939",
"M#	c #4B454A",
"N#	c #302F36",
"O#	c #54413F",
"P#	c #74574F",
"Q#	c #483530",
"R#	c #604740",
"S#	c #584139",
"T#	c #FBE127",
"U#	c #534C3B",
"V#	c #443637",
"W#	c #3E3130",
"X#	c #5B4C49",
"Y#	c #4D4444",
"Z#	c #493835",
"`#	c #543F3B",
" $	c #59433E",
".$	c #6A5048",
"+$	c #775C55",
"@$	c #1C1F2B",
"#$	c #2C344C",
"$$	c #272E52",
"%$	c #7B6059",
"&$	c #A28074",
"*$	c #7F6156",
"=$	c #69524E",
"-$	c #54423F",
";$	c #5B4642",
">$	c #5B4540",
",$	c #6F554E",
"'$	c #AA8576",
")$	c #333857",
"!$	c #020308",
"~$	c #0F1014",
"{$	c #1B2641",
"]$	c #162B5A",
"^$	c #574D5D",
"/$	c #A48075",
"($	c #9E7A6A",
"_$	c #5C4540",
":$	c #5C4743",
"<$	c #513E3A",
"[$	c #523F3C",
"}$	c #826B65",
"|$	c #947C7C",
"1$	c #1C305F",
"2$	c #00020D",
"3$	c #0D0F13",
"4$	c #182033",
"5$	c #112246",
"6$	c #12244B",
"7$	c #504255",
"8$	c #824F5B",
"9$	c #6C454D",
"0$	c #5E3541",
"a$	c #4C3A4B",
"b$	c #2C324E",
"c$	c #4A4C6D",
"d$	c #152650",
"e$	c #152952",
"f$	c #343642",
"g$	c #0A0C12",
"h$	c #111C30",
"i$	c #0A101B",
"j$	c #091425",
"k$	c #0C1A33",
"l$	c #12244A",
"m$	c #142144",
"n$	c #162146",
"o$	c #152953",
"p$	c #0F2146",
"q$	c #0B1A37",
"r$	c #102245",
"s$	c #152954",
"t$	c #0E1320",
"u$	c #14151A",
"v$	c #2C2738",
"w$	c #3A1521",
"x$	c #22141C",
"y$	c #160E17",
"z$	c #080E19",
"A$	c #0A162A",
"B$	c #0C1C38",
"C$	c #0B1B35",
"D$	c #152446",
"E$	c #12254D",
"F$	c #122042",
"G$	c #0C172E",
"H$	c #222835",
"I$	c #32333C",
"J$	c #3B1D2B",
"K$	c #662439",
"L$	c #7A2038",
"M$	c #3B1420",
"N$	c #12131D",
"O$	c #080E18",
"P$	c #091120",
"Q$	c #0A1427",
"R$	c #0B111F",
"S$	c #111323",
"T$	c #23101A",
"U$	c #4C1828",
"V$	c #3F3340",
"W$	c #532F3E",
"X$	c #992B4A",
"Y$	c #7B2A41",
"Z$	c #AD3151",
"`$	c #601B2D",
" %	c #16101C",
".%	c #0A1831",
"+%	c #090F1B",
"@%	c #0C0D16",
"#%	c #180F17",
"$%	c #1A0E16",
"%%	c #551D2E",
"&%	c #752238",
"*%	c #53424E",
"=%	c #1C1819",
"-%	c #593C44",
";%	c #AE3152",
">%	c #8B2843",
",%	c #351F2C",
"'%	c #60283A",
")%	c #1C1722",
"!%	c #0C182D",
"~%	c #0A111B",
"{%	c #170D16",
"]%	c #180E17",
"^%	c #1C0F17",
"/%	c #2D121C",
"(%	c #5E202F",
"_%	c #2E2528",
":%	c #211714",
"<%	c #3D2C2B",
"[%	c #48222F",
"}%	c #6F2438",
"|%	c #582030",
"1%	c #1F111B",
"2%	c #160D17",
"3%	c #141119",
"4%	c #120E14",
"5%	c #170E16",
"6%	c #190E16",
"7%	c #220F18",
"8%	c #371420",
"9%	c #531D2C",
"0%	c #0B0204",
"a%	c #4B3C3D",
"b%	c #523935",
"c%	c #493430",
"d%	c #221A1D",
"e%	c #1B1119",
"f%	c #141017",
"g%	c #120B12",
"h%	c #17141A",
"i%	c #161319",
"j%	c #171118",
"k%	c #1C0F18",
"l%	c #32161F",
"m%	c #1D080F",
"    . . . . . .           . . . . . . . . . + @ . . . . . . . . . . . . . . . . . . . . . .     ",
"  . . . . . . .         . . . . . . . # $ % & * . . . . . . . . . . . . . . . . . . . . . .     ",
". . . . . . . . . . . . . . . . . . = - ; > , . . . . . . . . . . . . . . . . . . . . . . . . . ",
". . . . . . . . . . . . . . . . . ' ) ! ~ { . . . . . . . . . . . . . . ] ] . . . . . . . . . . ",
". . . . . ^ ^ . . . . . . . . . . / ( _ : < [ } . . . . . . . . . . . . | | . . . . . . . . . . ",
". . . . . ^ 1 ] ^ ^ . . . . . . 2 3 4 5 6 7 8 9 . . . . . . . . . . . . . . . . . . . . . . . . ",
". . . . . . | 0 a ^ . . . . . b c d e f . . . . . . . . . . . . . . . . . | | . . . . . . . . . ",
". . . . . . ]   g . . . . . . h i j k . . . . . . . . . . . . . . . . . . ] ] . . . . . . . . . ",
". . . . . . ] | . . . . . . . l m n o . . . . . . . . . . . . . . . . . . . . . . . . . . . . . ",
". . . . . . . . . . . . . . p q r s . . . . . . . . .     . . . . . . . . . . . .   . . . . . . ",
". . . . . . . . . . . . . t u v w x . . . . . . . . . . . . . . . . . . . . . . .   . . . . . . ",
". . . . . . . . . . . . . y z A B C . . . . . . . . . D E . . . .   g . . . . . . . . . . . . . ",
"^ . . . . . . . . . . . . F G H I . . . . . J K L M N O P Q R . . g S . . . . . . . . . . . .   ",
"  . . . . . . . . . . . . T U V W X . . . Y Z `  ...+.@.#.$.%.&.*.. . . . . . . . . . . . . =.  ",
"    . . . . . . . . . . . -.;.>.,.'.. . ).!.~.{.].^./.(._.:.<.[.}.|.. . . . . . . . . . . . =.  ",
"  . . . . . . . . . . . . 1.2.3.4.5.6.. 7.8.9.0.a.b.c.. . . d.e.f.g.. . . . . . . . . . . . .   ",
"  . . . . . . . . . . . . h.i.j.k.l.m.. n.o.p.q.r.s.t.. . . . u.v.w.x.. . . . . . . . . . . . . ",
". . . . . . . . . . . . . y.z.A.B.C.D.. E.F.G.H.I.J.K.. . . . L.M.N.O.P.. =.  . . . . . . . . . ",
". . . . . .   =.. . . . . Q.R.S.T.U.V.W.X.Y.Z.`. +.+++. . . . . @+#+$+%+. . . . . . . . . . . . ",
". . . . . . . . . . . . . . &+*+=+-+;+>+,+'+)+!+~+{+]+. . ^+/+(+_+:+<+[+}+. . . . . . . . . . . ",
". . . | | . . . . . . . . . |+1+2+3+4+5+6+7+8+9+0+a+. . b+c+d+e+f+g+h+i+. . . . . . . . . . . . ",
". . ^ 1 ] . .   =.. . . . . j+k+l+m+n+o+p+q+r+s+t+u+v+w+x+y+z+A+B+C+D+] ] . . . . . . . . . . . ",
". . ^ 1 1 ^ . . . . . . . . . E+F+G+H+I+J+K+L+M+N+O+P+Q+R+S+T+U+V+W+X+| | . . . . . . . . . . . ",
". . . | Y+^ . . . . . . . . . Z+`+ @.@+@@@#@$@%@&@*@=@-@;@>@,@'@)@!@. . . . . . . . . . . . . . ",
". . . . . . . . . . . . . . . ~@{@]@^@/@(@_@:@<@[@}@|@1@2@3@4@5@6@. . . . . . . . . . . . . . . ",
". . . . . . . . . . . . . . . 7@8@9@0@a@b@c@d@e@f@g@h@i@j@k@. . . . . . . . . . . . . . . . . . ",
". . . . . . . . . . . . . . . l@m@n@o@p@q@r@s@t@u@v@w@x@y@. . . . . . . . . . . . . . . . . . . ",
". . . . . . . . . . . . . . . . z@A@B@C@D@E@F@G@H@I@J@K@L@. . . . . . . . . . . . . . . . . . . ",
". . . . . . . . . . . . . . . . M@N@O@P@Q@R@S@T@U@V@W@X@Y@. . . . . . .     . . . . . . . . . . ",
". . . . . . . . . . . . . . . . Z@`@ #.#+#@###$#%#&#*#=#. . . . . . . . . . . . . . . . . . . . ",
". . . . . . . . . . . . . . . . . -#;#>#,#'#)#!#~#{#]#^#. . . . . . . . . . . . . . . . . . . . ",
". . . . . . . . . . . . . . . . . /#(#_#:#<#[#}#|#1#2#3#. . . . . . . . . . . . . . . . . . . . ",
". . . . . . . . . . . . . . . . . 4#5#6#7#8#9#0#a#b#c#d#. . . . . . . . . . . . . . . . . . . . ",
". . . . . . . . . . . . . . . . . e#f#g#h#i#j#k#l#m#n#o#. . . . . . . . . . . . . . . . . . . . ",
". . . . . . . . . . . . . . . . . . p#q#r#s#t#u#v#w#x#y#. . . . . . . . . . . . . . . . . . . . ",
". . . . . . . . . . . . . . . . . . z#A#B#C#D#E#F#G#H#I#. . . . . . . . . . . . . . . . . . . . ",
". . . . . | ] . . . . . . . . . . =.J#K#L#M#N#O#P#Q#R#S#. . . . . . . . . . . . . . . . . . . . ",
". . . . . | ] . . . . . . . . . . T#U#V#W#X#Y#Z#`# $.$+$@$. . . . . . . . . . . . . . . . . . . ",
". . . . . ^ ^ | ] . . . . . . . . #$$$%$&$*$=$-$;$>$,$'$)$!$. . . . . . . . . . . . . . . . . . ",
". . . =.  ^ ^ | ] . . . . . . . ~${$]$^$/$($_$:$<$[$}$|$1$2$. . . . . . . . . . . . . . . . . . ",
". . . . . ^ ^ . . . . . . . . . 3$4$5$6$7$8$9$0$a$b$c$d$e$f$. . . . . . . . . . . . . . . . . . ",
". . . . . ^ ^ . . . . . . . . . g$h$i$j$k$l$m$n$o$p$q$r$s$t$. . . . . . . . . . . . . . . . . . ",
". . . . . . . . . . . . . . . . u$v$w$x$y$z$A$B$C$D$E$F$G$H$. . . . . . . . | ] . . . . . . . . ",
". . . . . . . . . . . . . . . . I$J$K$L$M$N$O$P$Q$R$S$T$U$V$. . . . . . ] |   ] . . . . . . . . ",
". . . . . . . . . . . . . . . . W$X$Y$Z$`$ %.%+%@%#%$%%%&%*%. . . . . . ] |   . . . . . . . . . ",
". . . . . . . . . . . . . . . =%-%;%>%,%'%)%!%~%{%]%^%/%(%_%. . . . . . . .   =.. . . . . . . . ",
"  =.. . . . . . . . . .     . :%<%[%}%|%1%2%3%4%5%6%7%8%9%0%. . . . . . . . . . . . . . . . .   ",
"    . . . . . . . . ^ ^       a%b%c%d%e%f%g%. h%i%j%k%l%m%. . . . . . . . . . . . . . . . . =.  "};
